<svg width="358" height="78" viewBox="0 0 358 78" fill="none" xmlns="http://www.w3.org/2000/svg">
<path d="M358 22.0092C358 9.85895 348.15 0.00922293 336 0.00922148L188.842 0.00920395C188.842 0.00920395 185.315 -0.284556 182.094 2.44711C166.798 15.4205 166.456 65.7011 145.203 70.0452C63.9261 86.6583 358 72.0936 358 72.0936V22.0092Z" fill="#E7ECF1"/>
<path d="M0 22.0068C0 9.85654 9.84973 0.00680828 22 0.00680722L169.119 0.00679428C169.119 0.00679428 172.645 -0.210057 175.865 1.80643C191.158 11.3833 191.5 48.5 212.748 51.7067C294.006 63.9704 0 53.2189 0 53.2189V22.0068Z" fill="#029656"/>
<path d="M23.872 34.168C22.5933 34.168 21.59 33.7387 20.862 32.88C20.134 32.012 19.77 30.7567 19.77 29.114C19.77 28.2927 19.8633 27.5693 20.05 26.944C20.2367 26.3187 20.5073 25.7913 20.862 25.362C21.2167 24.9327 21.646 24.6107 22.15 24.396C22.6633 24.172 23.2373 24.06 23.872 24.06C24.7213 24.06 25.4307 24.2467 26 24.62C26.5787 24.9933 27.0313 25.544 27.358 26.272L26.028 27C25.86 26.5333 25.5987 26.1647 25.244 25.894C24.8987 25.614 24.4413 25.474 23.872 25.474C23.116 25.474 22.5233 25.7307 22.094 26.244C21.6647 26.7573 21.45 27.4667 21.45 28.372V29.856C21.45 30.7613 21.6647 31.4707 22.094 31.984C22.5233 32.4973 23.116 32.754 23.872 32.754C24.46 32.754 24.936 32.6047 25.3 32.306C25.6733 31.998 25.9487 31.606 26.126 31.13L27.4 31.9C27.0733 32.6093 26.616 33.1647 26.028 33.566C25.44 33.9673 24.7213 34.168 23.872 34.168ZM35.14 34L34.258 31.354H30.604L29.75 34H28.14L31.472 24.228H33.46L36.792 34H35.14ZM32.466 25.684H32.396L30.982 29.996H33.866L32.466 25.684ZM41.2316 34.168C40.4102 34.168 39.7102 34.0187 39.1316 33.72C38.5622 33.4213 38.0722 33.02 37.6616 32.516L38.7536 31.494C39.0989 31.914 39.4769 32.2313 39.8876 32.446C40.3076 32.6607 40.7836 32.768 41.3156 32.768C41.9409 32.768 42.4122 32.628 42.7296 32.348C43.0469 32.068 43.2056 31.69 43.2056 31.214C43.2056 30.8313 43.0936 30.528 42.8696 30.304C42.6456 30.08 42.2489 29.912 41.6796 29.8L40.8116 29.646C39.8596 29.4687 39.1456 29.156 38.6696 28.708C38.1936 28.26 37.9556 27.644 37.9556 26.86C37.9556 26.4307 38.0349 26.0433 38.1936 25.698C38.3616 25.3433 38.5902 25.0493 38.8796 24.816C39.1782 24.5733 39.5376 24.3867 39.9576 24.256C40.3776 24.1253 40.8489 24.06 41.3716 24.06C42.1089 24.06 42.7482 24.1907 43.2896 24.452C43.8309 24.704 44.2929 25.0727 44.6756 25.558L43.5696 26.538C43.3176 26.2113 43.0096 25.95 42.6456 25.754C42.2816 25.558 41.8289 25.46 41.2876 25.46C40.7276 25.46 40.2936 25.572 39.9856 25.796C39.6776 26.02 39.5236 26.3467 39.5236 26.776C39.5236 27.1867 39.6496 27.4947 39.9016 27.7C40.1536 27.896 40.5456 28.0453 41.0776 28.148L41.9456 28.33C42.9256 28.5167 43.6396 28.834 44.0876 29.282C44.5449 29.73 44.7736 30.346 44.7736 31.13C44.7736 31.5873 44.6942 32.0027 44.5356 32.376C44.3769 32.7493 44.1436 33.0713 43.8356 33.342C43.5369 33.6033 43.1682 33.8087 42.7296 33.958C42.2909 34.098 41.7916 34.168 41.2316 34.168ZM52.6788 29.744H48.2548V34H46.6728V24.228H48.2548V28.344H52.6788V24.228H54.2608V34H52.6788V29.744ZM61.4175 34L59.1075 24.228H60.7175L61.7115 28.932L62.3975 32.18H62.4395L63.2235 28.932L64.3855 24.228H66.1495L67.2975 28.932L68.0675 32.166H68.1095L68.8235 28.932L69.8455 24.228H71.3995L68.9915 34H67.2135L65.9675 28.946L65.2395 25.978H65.2115L64.4695 28.946L63.1955 34H61.4175ZM78.849 34L77.967 31.354H74.313L73.459 34H71.849L75.181 24.228H77.169L80.501 34H78.849ZM76.175 25.684H76.105L74.691 29.996H77.575L76.175 25.684ZM82.0145 34V24.228H83.5965V32.6H87.5725V34H82.0145ZM89.1923 34V24.228H90.7743V32.6H94.7503V34H89.1923ZM96.37 34V24.228H102.628V25.628H97.952V28.344H102.194V29.744H97.952V32.6H102.628V34H96.37ZM108.295 25.628V34H106.713V25.628H103.801V24.228H111.207V25.628H108.295Z" fill="#F5F7F9"/>
<path fill-rule="evenodd" clip-rule="evenodd" d="M124.07 29C124.125 29.0944 124.197 29.2148 124.287 29.3537C124.518 29.7107 124.859 30.1853 125.302 30.658C126.198 31.6132 127.45 32.5 129 32.5C130.55 32.5 131.802 31.6132 132.698 30.658C133.141 30.1853 133.482 29.7107 133.713 29.3537C133.803 29.2148 133.875 29.0944 133.93 29C133.875 28.9056 133.803 28.7852 133.713 28.6463C133.482 28.2893 133.141 27.8147 132.698 27.342C131.802 26.3868 130.55 25.5 129 25.5C127.45 25.5 126.198 26.3868 125.302 27.342C124.859 27.8147 124.518 28.2893 124.287 28.6463C124.197 28.7852 124.125 28.9056 124.07 29ZM134.5 29C134.947 28.7764 134.947 28.7762 134.947 28.776L134.946 28.7744L134.945 28.771L134.939 28.7599C134.934 28.7506 134.927 28.7377 134.919 28.7212C134.901 28.6883 134.876 28.6416 134.843 28.583C134.777 28.4658 134.68 28.3008 134.553 28.1037C134.299 27.7107 133.922 27.1853 133.427 26.658C132.448 25.6132 130.95 24.5 129 24.5C127.05 24.5 125.552 25.6132 124.573 26.658C124.078 27.1853 123.701 27.7107 123.447 28.1037C123.32 28.3008 123.223 28.4658 123.157 28.583C123.124 28.6416 123.099 28.6883 123.081 28.7212C123.073 28.7377 123.066 28.7506 123.061 28.7599L123.055 28.771L123.054 28.7744L123.053 28.7756C123.053 28.7758 123.053 28.7764 123.5 29L123.053 28.7764C122.982 28.9172 122.982 29.0828 123.053 29.2236L123.5 29C123.053 29.2236 123.053 29.2234 123.053 29.2236L123.054 29.2256L123.055 29.229L123.061 29.2401C123.066 29.2494 123.073 29.2623 123.081 29.2788C123.099 29.3117 123.124 29.3584 123.157 29.417C123.223 29.5342 123.32 29.6992 123.447 29.8963C123.701 30.2893 124.078 30.8147 124.573 31.342C125.552 32.3868 127.05 33.5 129 33.5C130.95 33.5 132.448 32.3868 133.427 31.342C133.922 30.8147 134.299 30.2893 134.553 29.8963C134.68 29.6992 134.777 29.5342 134.843 29.417C134.876 29.3584 134.901 29.3117 134.919 29.2788C134.927 29.2623 134.934 29.2494 134.939 29.2401L134.945 29.229L134.946 29.2256L134.947 29.2244C134.947 29.2242 134.947 29.2236 134.5 29ZM134.5 29L134.947 29.2236C135.018 29.0828 135.017 28.9168 134.947 28.776L134.5 29Z" fill="#F5F7F9"/>
<path fill-rule="evenodd" clip-rule="evenodd" d="M129 28C128.448 28 128 28.4477 128 29C128 29.5523 128.448 30 129 30C129.552 30 130 29.5523 130 29C130 28.4477 129.552 28 129 28ZM127 29C127 27.8954 127.895 27 129 27C130.105 27 131 27.8954 131 29C131 30.1046 130.105 31 129 31C127.895 31 127 30.1046 127 29Z" fill="#F5F7F9"/>
<path d="M229.786 34H228.204V24.228H232.418C233.295 24.228 233.986 24.494 234.49 25.026C234.994 25.5487 235.246 26.2627 235.246 27.168C235.246 27.868 235.083 28.4513 234.756 28.918C234.439 29.3753 233.967 29.6973 233.342 29.884L235.456 34H233.692L231.732 30.052H229.786V34ZM232.306 28.722C232.707 28.722 233.02 28.6193 233.244 28.414C233.468 28.1993 233.58 27.896 233.58 27.504V26.832C233.58 26.44 233.468 26.1413 233.244 25.936C233.02 25.7213 232.707 25.614 232.306 25.614H229.786V28.722H232.306ZM237.378 34V24.228H243.636V25.628H238.96V28.344H243.202V29.744H238.96V32.6H243.636V34H237.378ZM247.119 34L244.809 24.228H246.419L247.413 28.932L248.099 32.18H248.141L248.925 28.932L250.087 24.228H251.851L252.999 28.932L253.769 32.166H253.811L254.525 28.932L255.547 24.228H257.101L254.693 34H252.915L251.669 28.946L250.941 25.978H250.913L250.171 28.946L248.897 34H247.119ZM264.55 34L263.668 31.354H260.014L259.16 34H257.55L260.882 24.228H262.87L266.202 34H264.55ZM261.876 25.684H261.806L260.392 29.996H263.276L261.876 25.684ZM269.298 34H267.716V24.228H271.93C272.807 24.228 273.498 24.494 274.002 25.026C274.506 25.5487 274.758 26.2627 274.758 27.168C274.758 27.868 274.594 28.4513 274.268 28.918C273.95 29.3753 273.479 29.6973 272.854 29.884L274.968 34H273.204L271.244 30.052H269.298V34ZM271.818 28.722C272.219 28.722 272.532 28.6193 272.756 28.414C272.98 28.1993 273.092 27.896 273.092 27.504V26.832C273.092 26.44 272.98 26.1413 272.756 25.936C272.532 25.7213 272.219 25.614 271.818 25.614H269.298V28.722H271.818ZM276.89 24.228H280.348C280.973 24.228 281.538 24.3307 282.042 24.536C282.555 24.7413 282.989 25.0493 283.344 25.46C283.708 25.8613 283.988 26.37 284.184 26.986C284.38 27.5927 284.478 28.302 284.478 29.114C284.478 29.926 284.38 30.64 284.184 31.256C283.988 31.8627 283.708 32.3713 283.344 32.782C282.989 33.1833 282.555 33.4867 282.042 33.692C281.538 33.8973 280.973 34 280.348 34H276.89V24.228ZM280.348 32.6C281.076 32.6 281.664 32.3713 282.112 31.914C282.56 31.4567 282.784 30.7847 282.784 29.898V28.33C282.784 27.4433 282.56 26.7713 282.112 26.314C281.664 25.8567 281.076 25.628 280.348 25.628H278.472V32.6H280.348ZM291.197 34L288.887 24.228H290.497L291.491 28.932L292.177 32.18H292.219L293.003 28.932L294.165 24.228H295.929L297.077 28.932L297.847 32.166H297.889L298.603 28.932L299.625 24.228H301.179L298.771 34H296.993L295.747 28.946L295.019 25.978H294.991L294.249 28.946L292.975 34H291.197ZM308.628 34L307.746 31.354H304.092L303.238 34H301.628L304.96 24.228H306.948L310.28 34H308.628ZM305.954 25.684H305.884L304.47 29.996H307.354L305.954 25.684ZM311.794 34V24.228H313.376V32.6H317.352V34H311.794ZM318.972 34V24.228H320.554V32.6H324.53V34H318.972ZM326.149 34V24.228H332.407V25.628H327.731V28.344H331.973V29.744H327.731V32.6H332.407V34H326.149ZM338.074 25.628V34H336.492V25.628H333.58V24.228H340.986V25.628H338.074Z" fill="#01321D"/>
</svg>
