<svg width="358" height="78" viewBox="0 0 358 78" fill="none" xmlns="http://www.w3.org/2000/svg">
<path d="M0 22.0092C0 9.85895 9.84973 0.00922293 22 0.00922148L169.158 0.00920395C169.158 0.00920395 172.685 -0.284556 175.906 2.44711C191.202 15.4205 191.544 65.7011 212.797 70.0452C294.074 86.6583 0 72.0936 0 72.0936V22.0092Z" fill="#E7ECF1"/>
<path d="M357.947 22.0068C357.947 9.85654 348.098 0.00680828 335.947 0.00680722L188.829 0.00679428C188.829 0.00679428 185.302 -0.210057 182.082 1.80643C166.789 11.3833 166.447 48.5 145.2 51.7067C63.9416 63.9704 357.947 53.2189 357.947 53.2189V22.0068Z" fill="#01321D"/>
<path d="M19.872 35.168C18.5933 35.168 17.59 34.7387 16.862 33.88C16.134 33.012 15.77 31.7567 15.77 30.114C15.77 29.2927 15.8633 28.5693 16.05 27.944C16.2367 27.3187 16.5073 26.7913 16.862 26.362C17.2167 25.9327 17.646 25.6107 18.15 25.396C18.6633 25.172 19.2373 25.06 19.872 25.06C20.7213 25.06 21.4307 25.2467 22 25.62C22.5787 25.9933 23.0313 26.544 23.358 27.272L22.028 28C21.86 27.5333 21.5987 27.1647 21.244 26.894C20.8987 26.614 20.4413 26.474 19.872 26.474C19.116 26.474 18.5233 26.7307 18.094 27.244C17.6647 27.7573 17.45 28.4667 17.45 29.372V30.856C17.45 31.7613 17.6647 32.4707 18.094 32.984C18.5233 33.4973 19.116 33.754 19.872 33.754C20.46 33.754 20.936 33.6047 21.3 33.306C21.6733 32.998 21.9487 32.606 22.126 32.13L23.4 32.9C23.0733 33.6093 22.616 34.1647 22.028 34.566C21.44 34.9673 20.7213 35.168 19.872 35.168ZM31.14 35L30.258 32.354H26.604L25.75 35H24.14L27.472 25.228H29.46L32.792 35H31.14ZM28.466 26.684H28.396L26.982 30.996H29.866L28.466 26.684ZM37.2316 35.168C36.4102 35.168 35.7102 35.0187 35.1316 34.72C34.5622 34.4213 34.0722 34.02 33.6616 33.516L34.7536 32.494C35.0989 32.914 35.4769 33.2313 35.8876 33.446C36.3076 33.6607 36.7836 33.768 37.3156 33.768C37.9409 33.768 38.4122 33.628 38.7296 33.348C39.0469 33.068 39.2056 32.69 39.2056 32.214C39.2056 31.8313 39.0936 31.528 38.8696 31.304C38.6456 31.08 38.2489 30.912 37.6796 30.8L36.8116 30.646C35.8596 30.4687 35.1456 30.156 34.6696 29.708C34.1936 29.26 33.9556 28.644 33.9556 27.86C33.9556 27.4307 34.0349 27.0433 34.1936 26.698C34.3616 26.3433 34.5902 26.0493 34.8796 25.816C35.1782 25.5733 35.5376 25.3867 35.9576 25.256C36.3776 25.1253 36.8489 25.06 37.3716 25.06C38.1089 25.06 38.7482 25.1907 39.2896 25.452C39.8309 25.704 40.2929 26.0727 40.6756 26.558L39.5696 27.538C39.3176 27.2113 39.0096 26.95 38.6456 26.754C38.2816 26.558 37.8289 26.46 37.2876 26.46C36.7276 26.46 36.2936 26.572 35.9856 26.796C35.6776 27.02 35.5236 27.3467 35.5236 27.776C35.5236 28.1867 35.6496 28.4947 35.9016 28.7C36.1536 28.896 36.5456 29.0453 37.0776 29.148L37.9456 29.33C38.9256 29.5167 39.6396 29.834 40.0876 30.282C40.5449 30.73 40.7736 31.346 40.7736 32.13C40.7736 32.5873 40.6942 33.0027 40.5356 33.376C40.3769 33.7493 40.1436 34.0713 39.8356 34.342C39.5369 34.6033 39.1682 34.8087 38.7296 34.958C38.2909 35.098 37.7916 35.168 37.2316 35.168ZM48.6788 30.744H44.2548V35H42.6728V25.228H44.2548V29.344H48.6788V25.228H50.2608V35H48.6788V30.744ZM57.4175 35L55.1075 25.228H56.7175L57.7115 29.932L58.3975 33.18H58.4395L59.2235 29.932L60.3855 25.228H62.1495L63.2975 29.932L64.0675 33.166H64.1095L64.8235 29.932L65.8455 25.228H67.3995L64.9915 35H63.2135L61.9675 29.946L61.2395 26.978H61.2115L60.4695 29.946L59.1955 35H57.4175ZM74.849 35L73.967 32.354H70.313L69.459 35H67.849L71.181 25.228H73.169L76.501 35H74.849ZM72.175 26.684H72.105L70.691 30.996H73.575L72.175 26.684ZM78.0145 35V25.228H79.5965V33.6H83.5725V35H78.0145ZM85.1923 35V25.228H86.7743V33.6H90.7503V35H85.1923ZM92.37 35V25.228H98.628V26.628H93.952V29.344H98.194V30.744H93.952V33.6H98.628V35H92.37ZM104.295 26.628V35H102.713V26.628H99.8008V25.228H107.207V26.628H104.295Z" fill="#01321D"/>
<path fill-rule="evenodd" clip-rule="evenodd" d="M120.07 30C120.125 30.0944 120.197 30.2148 120.287 30.3537C120.518 30.7107 120.859 31.1853 121.302 31.658C122.198 32.6132 123.45 33.5 125 33.5C126.55 33.5 127.802 32.6132 128.698 31.658C129.141 31.1853 129.482 30.7107 129.713 30.3537C129.803 30.2148 129.875 30.0944 129.93 30C129.875 29.9056 129.803 29.7852 129.713 29.6463C129.482 29.2893 129.141 28.8147 128.698 28.342C127.802 27.3868 126.55 26.5 125 26.5C123.45 26.5 122.198 27.3868 121.302 28.342C120.859 28.8147 120.518 29.2893 120.287 29.6463C120.197 29.7852 120.125 29.9056 120.07 30ZM130.5 30C130.947 29.7764 130.947 29.7762 130.947 29.776L130.946 29.7744L130.945 29.771L130.939 29.7599C130.934 29.7506 130.927 29.7377 130.919 29.7212C130.901 29.6883 130.876 29.6416 130.843 29.583C130.777 29.4658 130.68 29.3008 130.553 29.1037C130.299 28.7107 129.922 28.1853 129.427 27.658C128.448 26.6132 126.95 25.5 125 25.5C123.05 25.5 121.552 26.6132 120.573 27.658C120.078 28.1853 119.701 28.7107 119.447 29.1037C119.32 29.3008 119.223 29.4658 119.157 29.583C119.124 29.6416 119.099 29.6883 119.081 29.7212C119.073 29.7377 119.066 29.7506 119.061 29.7599L119.055 29.771L119.054 29.7744L119.053 29.7756C119.053 29.7758 119.053 29.7764 119.5 30L119.053 29.7764C118.982 29.9172 118.982 30.0828 119.053 30.2236L119.5 30C119.053 30.2236 119.053 30.2234 119.053 30.2236L119.054 30.2256L119.055 30.229L119.061 30.2401C119.066 30.2494 119.073 30.2623 119.081 30.2788C119.099 30.3117 119.124 30.3584 119.157 30.417C119.223 30.5342 119.32 30.6992 119.447 30.8963C119.701 31.2893 120.078 31.8147 120.573 32.342C121.552 33.3868 123.05 34.5 125 34.5C126.95 34.5 128.448 33.3868 129.427 32.342C129.922 31.8147 130.299 31.2893 130.553 30.8963C130.68 30.6992 130.777 30.5342 130.843 30.417C130.876 30.3584 130.901 30.3117 130.919 30.2788C130.927 30.2623 130.934 30.2494 130.939 30.2401L130.945 30.229L130.946 30.2256L130.947 30.2244C130.947 30.2242 130.947 30.2236 130.5 30ZM130.5 30L130.947 30.2236C131.018 30.0828 131.017 29.9168 130.947 29.776L130.5 30Z" fill="#353535"/>
<path fill-rule="evenodd" clip-rule="evenodd" d="M125 29C124.448 29 124 29.4477 124 30C124 30.5523 124.448 31 125 31C125.552 31 126 30.5523 126 30C126 29.4477 125.552 29 125 29ZM123 30C123 28.8954 123.895 28 125 28C126.105 28 127 28.8954 127 30C127 31.1046 126.105 32 125 32C123.895 32 123 31.1046 123 30Z" fill="#353535"/>
<path d="M224.786 35H223.204V25.228H227.418C228.295 25.228 228.986 25.494 229.49 26.026C229.994 26.5487 230.246 27.2627 230.246 28.168C230.246 28.868 230.083 29.4513 229.756 29.918C229.439 30.3753 228.967 30.6973 228.342 30.884L230.456 35H228.692L226.732 31.052H224.786V35ZM227.306 29.722C227.707 29.722 228.02 29.6193 228.244 29.414C228.468 29.1993 228.58 28.896 228.58 28.504V27.832C228.58 27.44 228.468 27.1413 228.244 26.936C228.02 26.7213 227.707 26.614 227.306 26.614H224.786V29.722H227.306ZM232.378 35V25.228H238.636V26.628H233.96V29.344H238.202V30.744H233.96V33.6H238.636V35H232.378ZM242.119 35L239.809 25.228H241.419L242.413 29.932L243.099 33.18H243.141L243.925 29.932L245.087 25.228H246.851L247.999 29.932L248.769 33.166H248.811L249.525 29.932L250.547 25.228H252.101L249.693 35H247.915L246.669 29.946L245.941 26.978H245.913L245.171 29.946L243.897 35H242.119ZM259.55 35L258.668 32.354H255.014L254.16 35H252.55L255.882 25.228H257.87L261.202 35H259.55ZM256.876 26.684H256.806L255.392 30.996H258.276L256.876 26.684ZM264.298 35H262.716V25.228H266.93C267.807 25.228 268.498 25.494 269.002 26.026C269.506 26.5487 269.758 27.2627 269.758 28.168C269.758 28.868 269.594 29.4513 269.268 29.918C268.95 30.3753 268.479 30.6973 267.854 30.884L269.968 35H268.204L266.244 31.052H264.298V35ZM266.818 29.722C267.219 29.722 267.532 29.6193 267.756 29.414C267.98 29.1993 268.092 28.896 268.092 28.504V27.832C268.092 27.44 267.98 27.1413 267.756 26.936C267.532 26.7213 267.219 26.614 266.818 26.614H264.298V29.722H266.818ZM271.89 25.228H275.348C275.973 25.228 276.538 25.3307 277.042 25.536C277.555 25.7413 277.989 26.0493 278.344 26.46C278.708 26.8613 278.988 27.37 279.184 27.986C279.38 28.5927 279.478 29.302 279.478 30.114C279.478 30.926 279.38 31.64 279.184 32.256C278.988 32.8627 278.708 33.3713 278.344 33.782C277.989 34.1833 277.555 34.4867 277.042 34.692C276.538 34.8973 275.973 35 275.348 35H271.89V25.228ZM275.348 33.6C276.076 33.6 276.664 33.3713 277.112 32.914C277.56 32.4567 277.784 31.7847 277.784 30.898V29.33C277.784 28.4433 277.56 27.7713 277.112 27.314C276.664 26.8567 276.076 26.628 275.348 26.628H273.472V33.6H275.348ZM286.197 35L283.887 25.228H285.497L286.491 29.932L287.177 33.18H287.219L288.003 29.932L289.165 25.228H290.929L292.077 29.932L292.847 33.166H292.889L293.603 29.932L294.625 25.228H296.179L293.771 35H291.993L290.747 29.946L290.019 26.978H289.991L289.249 29.946L287.975 35H286.197ZM303.628 35L302.746 32.354H299.092L298.238 35H296.628L299.96 25.228H301.948L305.28 35H303.628ZM300.954 26.684H300.884L299.47 30.996H302.354L300.954 26.684ZM306.794 35V25.228H308.376V33.6H312.352V35H306.794ZM313.972 35V25.228H315.554V33.6H319.53V35H313.972ZM321.149 35V25.228H327.407V26.628H322.731V29.344H326.973V30.744H322.731V33.6H327.407V35H321.149ZM333.074 26.628V35H331.492V26.628H328.58V25.228H335.986V26.628H333.074Z" fill="#F5F7F9"/>
</svg>
