<svg width="98" height="147" viewBox="0 0 98 147" fill="none" xmlns="http://www.w3.org/2000/svg">
<path fill-rule="evenodd" clip-rule="evenodd" d="M95.9717 0H12.3589C10.9279 0 9.75708 1.1708 9.75708 2.60177V144.007C9.75708 145.438 10.9279 146.609 12.3589 146.609H95.9717C97.4028 146.609 98.5736 145.438 98.5736 144.007V2.60177C98.5736 1.1708 97.4028 0 95.9717 0Z" fill="#A7DEFF"/>
<path fill-rule="evenodd" clip-rule="evenodd" d="M68.3136 4.02319H46.1637C45.4482 4.02319 44.8628 4.60859 44.8628 5.32408C44.8628 6.03956 45.4482 6.62475 46.1637 6.62475H68.3136C69.0292 6.62475 69.6146 6.03956 69.6146 5.32408C69.6146 4.60859 69.0292 4.02319 68.3136 4.02319Z" fill="#1A72F1"/>
<path fill-rule="evenodd" clip-rule="evenodd" d="M41.3975 5.32418C41.3975 4.58376 40.7974 3.9834 40.0567 3.9834C39.3162 3.9834 38.7161 4.58376 38.7161 5.32418C38.7161 6.0646 39.3162 6.66495 40.0567 6.66495C40.7974 6.66495 41.3975 6.0646 41.3975 5.32418Z" fill="#1A72F1"/>
<path fill-rule="evenodd" clip-rule="evenodd" d="M60.0193 138.009C60.0193 134.776 57.3981 132.155 54.1653 132.155C50.9323 132.155 48.3115 134.776 48.3115 138.009C48.3115 141.242 50.9323 143.863 54.1653 143.863C57.3981 143.863 60.0193 141.242 60.0193 138.009Z" fill="#1A72F1"/>
<path fill-rule="evenodd" clip-rule="evenodd" d="M91.4989 12.5745H16.9048C15.4738 12.5745 14.303 13.7453 14.303 15.1762V126.336C14.303 127.767 15.4738 128.938 16.9048 128.938H91.4989C92.9299 128.938 94.1008 127.767 94.1008 126.336V15.1762C94.1008 13.7453 92.9299 12.5745 91.4989 12.5745Z" fill="#FFFFFE"/>
<path fill-rule="evenodd" clip-rule="evenodd" d="M43.2034 90.2658H44.7279V81.4382H43.2034V90.2658Z" fill="#1A72F1"/>
<path fill-rule="evenodd" clip-rule="evenodd" d="M39.7863 76.6196H47.8126C48.4089 76.6196 48.8967 77.1075 48.8967 77.7037V80.8306C48.8967 81.4268 48.4089 81.9146 47.8126 81.9146H39.7863C39.19 81.9146 38.7021 81.4268 38.7021 80.8306V77.7037C38.7021 77.1075 39.19 76.6196 39.7863 76.6196Z" fill="#1A72F1"/>
<path fill-rule="evenodd" clip-rule="evenodd" d="M39.8154 81.0738H47.7834V77.4602H39.8154V81.0738Z" fill="#403F3F"/>
<path fill-rule="evenodd" clip-rule="evenodd" d="M48.9524 94.6255L47.9564 89.219L31.7012 87.8711L31.8961 93.8142L48.9524 94.6255Z" fill="#1A72F1"/>
<path fill-rule="evenodd" clip-rule="evenodd" d="M31.7013 87.8711L22.4161 92.5634L22.1064 93.8632L31.8962 93.8142L31.7013 87.8711Z" fill="#0657CD"/>
<path fill-rule="evenodd" clip-rule="evenodd" d="M14.303 97.7345H55.7638L56.3982 93.4719H14.303V97.7345Z" fill="#A7DEFF"/>
<path fill-rule="evenodd" clip-rule="evenodd" d="M14.303 127.559C14.303 128.99 15.4738 130.161 16.9048 130.161H50.6745L52.9694 97.7344H14.303V127.559Z" fill="#A7DEFF"/>
<path fill-rule="evenodd" clip-rule="evenodd" d="M52.821 97.7344H14.8447V100.272H52.6445L52.821 97.7344Z" fill="#1A72F1"/>
<path fill-rule="evenodd" clip-rule="evenodd" d="M16.9047 13.1165C15.769 13.1165 14.8449 14.0406 14.8449 15.1763V126.336C14.8449 127.472 15.769 128.396 16.9047 128.396H91.499C92.6347 128.396 93.5588 127.472 93.5588 126.336V15.1763C93.5588 14.0406 92.6347 13.1165 91.499 13.1165H16.9047ZM91.499 129.48H16.9047C15.1712 129.48 13.7607 128.07 13.7607 126.336V15.1763C13.7607 13.4428 15.1712 12.0325 16.9047 12.0325H91.499C93.2325 12.0325 94.6429 13.4428 94.6429 15.1763V126.336C94.6429 128.07 93.2325 129.48 91.499 129.48Z" fill="#FFFFFE"/>
<path fill-rule="evenodd" clip-rule="evenodd" d="M50.7725 41.9451H49.6884V25.879H24.3202V41.9451H23.2361V24.7949H50.7725V41.9451Z" fill="#A7DEFF"/>
<path fill-rule="evenodd" clip-rule="evenodd" d="M20.0268 41.9451C19.2644 41.9451 18.6465 42.563 18.6465 43.3253V61.6823C18.6465 62.4446 19.2644 63.0626 20.0268 63.0626H53.9814C54.7437 63.0626 55.3617 62.4446 55.3617 61.6823V43.3253C55.3617 42.563 54.7437 41.9451 53.9814 41.9451H20.0268Z" fill="#FFFFFE"/>
<path fill-rule="evenodd" clip-rule="evenodd" d="M20.0268 42.4872C19.5646 42.4872 19.1886 42.8631 19.1886 43.3254V61.6824C19.1886 62.1446 19.5646 62.5206 20.0268 62.5206H53.9814C54.4437 62.5206 54.8197 62.1446 54.8197 61.6824V43.3254C54.8197 42.8631 54.4437 42.4872 53.9814 42.4872H20.0268ZM53.9815 63.6047H20.0268C18.9668 63.6047 18.1045 62.7422 18.1045 61.6824V43.3254C18.1045 42.2656 18.9668 41.4031 20.0268 41.4031H53.9815C55.0415 41.4031 55.9038 42.2656 55.9038 43.3254V61.6824C55.9038 62.7422 55.0415 63.6047 53.9815 63.6047Z" fill="#A7DEFF"/>
<path fill-rule="evenodd" clip-rule="evenodd" d="M31.1338 51.1112L30.1737 51.4134C30.1115 51.0223 29.7826 50.4445 28.9381 50.4445C28.298 50.4445 27.8535 50.8712 27.8535 51.3512C27.8535 51.7512 28.1024 52.0535 28.5914 52.1601L29.4981 52.3468C30.6093 52.569 31.2049 53.2713 31.2049 54.1602C31.2049 55.1381 30.4138 56.0715 28.9736 56.0715C27.3735 56.0715 26.6356 55.0403 26.5378 54.1336L27.5335 53.8491C27.5957 54.5069 28.0669 55.1114 28.9736 55.1114C29.7293 55.1114 30.1204 54.7292 30.1204 54.2402C30.1204 53.8313 29.8182 53.5024 29.2759 53.3869L28.3869 53.2002C27.4268 53.0046 26.7868 52.3735 26.7868 51.4312C26.7868 50.3734 27.7557 49.5022 28.9292 49.5022C30.4138 49.5022 30.9916 50.4089 31.1338 51.1112ZM36.6277 55.9381L36.0321 54.3558H33.3651L32.7784 55.9381H31.6494L34.103 49.6355H35.3387L37.7922 55.9381H36.6277ZM34.6986 50.7911L33.7385 53.3691H35.6587L34.6986 50.7911ZM42.5927 55.9381H38.6367V49.6355H39.7035V54.9247H42.5927V55.9381ZM47.4642 55.9381H43.5705V49.6355H47.4642V50.6311H44.6373V52.3024H47.1975V53.2713H44.6373V54.9425H47.4642V55.9381Z" fill="#A7DEFF"/>
<path fill-rule="evenodd" clip-rule="evenodd" d="M20.4432 34.4379C16.6967 34.4379 13.6597 31.401 13.6597 27.6547V19.2898H27.3247V27.6547C27.3247 31.401 24.2877 34.4379 20.5412 34.4379H20.4432Z" fill="#FF7381"/>
<path fill-rule="evenodd" clip-rule="evenodd" d="M34.2062 34.4379H34.1082C30.3617 34.4379 27.3247 31.401 27.3247 27.6547V19.2898H40.9897V27.6547C40.9897 31.401 37.9527 34.4379 34.2062 34.4379Z" fill="#A7DEFF"/>
<path fill-rule="evenodd" clip-rule="evenodd" d="M47.871 34.4379H47.773C44.0265 34.4379 40.9895 31.401 40.9895 27.6547V19.2898H54.6545V27.6547C54.6545 31.401 51.6175 34.4379 47.871 34.4379Z" fill="#FF7381"/>
<path fill-rule="evenodd" clip-rule="evenodd" d="M61.536 34.4379H61.438C57.6916 34.4379 54.6545 31.401 54.6545 27.6547V19.2898H68.3195V27.6547C68.3195 31.401 65.2825 34.4379 61.536 34.4379Z" fill="#A7DEFF"/>
<path fill-rule="evenodd" clip-rule="evenodd" d="M75.2011 34.4379H75.1031C71.3566 34.4379 68.3196 31.401 68.3196 27.6547V19.2898H81.9846V27.6547C81.9846 31.401 78.9476 34.4379 75.2011 34.4379Z" fill="#FF7381"/>
<path fill-rule="evenodd" clip-rule="evenodd" d="M88.8659 34.4379H88.7679C85.0214 34.4379 81.9844 31.401 81.9844 27.6547V19.2898H95.6494V27.6547C95.6494 31.401 92.6124 34.4379 88.8659 34.4379Z" fill="#A7DEFF"/>
<path fill-rule="evenodd" clip-rule="evenodd" d="M6.86556 34.4379H6.96356C10.71 34.4379 13.7471 31.401 13.7471 27.6547V19.2898H0.0820541V27.6547C0.0820541 31.401 3.11909 34.4379 6.86556 34.4379Z" fill="#A7DEFF"/>
<path fill-rule="evenodd" clip-rule="evenodd" d="M20.8149 10.1904L11.8884 10.126L0.0819473 19.2896H13.747L20.8149 10.1904Z" fill="#DBF5FF"/>
<path fill-rule="evenodd" clip-rule="evenodd" d="M13.6597 19.2897H27.3247L31.4393 10.1904H20.815L13.6597 19.2897Z" fill="#FF516C"/>
<path fill-rule="evenodd" clip-rule="evenodd" d="M81.9844 19.2896L77.83 10.126H67.0813L68.3194 19.2896H81.9844Z" fill="#FF516C"/>
<path fill-rule="evenodd" clip-rule="evenodd" d="M40.9893 19.2896H54.6543V10.126H40.9893V19.2896Z" fill="#FF516C"/>
<path fill-rule="evenodd" clip-rule="evenodd" d="M27.3245 19.2896H40.9897V10.126L31.4393 10.1904L27.3245 19.2896Z" fill="#DBF5FF"/>
<path fill-rule="evenodd" clip-rule="evenodd" d="M54.6545 19.2896V10.126H67.0813L68.3195 19.2896H54.6545Z" fill="#DBF5FF"/>
<path fill-rule="evenodd" clip-rule="evenodd" d="M81.9844 19.2896L77.8301 10.126H88.5814L95.6494 19.2896H81.9844Z" fill="#DBF5FF"/>
<path fill-rule="evenodd" clip-rule="evenodd" d="M102.531 34.4379H102.433C98.6862 34.4379 95.6492 31.401 95.6492 27.6547V19.2898H109.314V27.6547C109.314 31.401 106.277 34.4379 102.531 34.4379Z" fill="#FF7381"/>
<path fill-rule="evenodd" clip-rule="evenodd" d="M95.6493 19.2896L88.5813 10.126H97.5079L109.314 19.2896H95.6493Z" fill="#FF516C"/>
<path fill-rule="evenodd" clip-rule="evenodd" d="M92.1722 99.7663L84.6508 120.556C84.0374 122.241 83.0162 123.748 81.6786 124.942L76.3452 129.703L73.3533 126.158L77.4031 119.252L79.4399 97.3467L92.1722 99.7663Z" fill="#FF516C"/>
<path fill-rule="evenodd" clip-rule="evenodd" d="M58.6609 114.636L62.6578 112.973L75.6869 115.471L71.1202 117.643L58.6609 114.636Z" fill="#131412"/>
<path fill-rule="evenodd" clip-rule="evenodd" d="M58.6608 114.636L71.1201 117.643L72.5349 133.695L56.157 129.413L58.6608 114.636Z" fill="#FFF03D"/>
<path fill-rule="evenodd" clip-rule="evenodd" d="M71.1201 117.643L75.687 115.471L79.2195 130.849L72.5349 133.694L71.1201 117.643Z" fill="#F96B1C"/>
<path fill-rule="evenodd" clip-rule="evenodd" d="M58.9989 115.026L58.6611 114.636L65.3857 106.905L65.7235 107.195L58.9989 115.026Z" fill="#FFF03D"/>
<path fill-rule="evenodd" clip-rule="evenodd" d="M71.1299 117.755L68.5872 106.984C68.5586 106.851 68.7296 106.77 68.8133 106.878L75.6868 115.471L75.4223 115.875L69.3155 108.244L71.5934 117.518L71.1299 117.755Z" fill="#FFF03D"/>
<path fill-rule="evenodd" clip-rule="evenodd" d="M67.5557 103.164V106.227H68.8924V107.341H65.2166L64.9382 103.432L67.5557 103.164Z" fill="#FD9F9D"/>
<path fill-rule="evenodd" clip-rule="evenodd" d="M99.5239 110.7C97.8902 109.661 84.7534 99.5129 84.7534 99.5129L72.0046 97.1858C72.0268 101.071 73.1488 104.488 74.3704 106.227C78.2318 111.721 94.4744 117.681 94.4744 117.681L103.088 140.997L106.801 139.809C106.801 139.809 101.158 111.74 99.5239 110.7Z" fill="#FF7381"/>
<path fill-rule="evenodd" clip-rule="evenodd" d="M100.417 82.9224C100.565 80.2491 102.486 58.5657 98.122 55.152C97.8738 54.9577 97.6387 54.7776 97.4132 54.6082C97.2146 55.4937 84.9403 54.6705 84.64 51.3933C81.2472 52.1745 76.6265 54.6815 72.9329 61.994C70.2409 67.3237 68.369 71.422 67.0937 74.4157C65.4643 78.2397 64.6247 82.3516 64.6265 86.5083L64.6336 103.432L68.0494 103.431L70.2686 83.0837L73.831 78.3006C73.831 78.3006 71.9613 88.7957 72.013 97.1914L94.7815 101.34L95.9651 90.3498L101.168 101.634L104.88 99.9991C104.88 99.9991 100.27 85.5957 100.417 82.9224Z" fill="#19243C"/>
<path fill-rule="evenodd" clip-rule="evenodd" d="M73.8307 78.2957L81.2564 68.3748L73.2849 81.7479L73.8307 78.2957Z" fill="#2E3A54"/>
<path fill-rule="evenodd" clip-rule="evenodd" d="M95.9595 90.3544L97.8747 67.781L97.1503 92.9406L95.9595 90.3544Z" fill="#2E3A54"/>
<path fill-rule="evenodd" clip-rule="evenodd" d="M96.4504 53.9139C96.1848 54.864 86.3905 55.3414 85.7726 51.1873C85.4133 51.2365 85.0362 51.302 84.6399 51.3932C84.9215 57.9581 97.1872 60.3166 97.4131 54.6079C97.0701 54.3504 96.752 54.1212 96.4504 53.9139Z" fill="#FFFFFE"/>
<path fill-rule="evenodd" clip-rule="evenodd" d="M67.5556 106.335H66.8208L66.5942 104.701L66.8091 104.671L67.0097 106.118H67.5556V106.335Z" fill="#FF7381"/>
<path fill-rule="evenodd" clip-rule="evenodd" d="M73.5026 116.51L73.0831 116.71L74.9384 128.521L72.4907 133.193L72.535 133.694L72.7869 133.587L75.265 128.857L79.192 130.861L79.2196 130.849L79.0962 130.312L75.3723 128.412L73.5026 116.51Z" fill="#FFF03D"/>
<path fill-rule="evenodd" clip-rule="evenodd" d="M91.7995 100.797L72.0541 99.1163L72.0129 97.1912L91.7995 100.797Z" fill="#FF516C"/>
<path fill-rule="evenodd" clip-rule="evenodd" d="M93.4532 39.6978L91.9014 45.2202C91.9014 45.2202 90.5092 43.1596 89.8965 43.9393C89.2839 44.7189 90.9548 46.3897 90.9548 46.3897L90.1896 49.1129C89.8548 50.3047 88.7532 51.1033 87.5151 51.0835C87.0001 51.0755 86.4106 51.1004 85.7727 51.1876C86.3907 55.3415 91.3678 57.4806 94.8457 56.0486C95.7344 55.6535 96.185 54.8641 96.4506 53.914C95.3281 53.1428 94.4439 52.6908 93.4482 52.3387L93.9545 49.5552C95.4205 49.6699 96.6227 49.432 97.039 48.1429L98.0202 40.366L93.4532 39.6978Z" fill="#FD9F9D"/>
<path fill-rule="evenodd" clip-rule="evenodd" d="M91.9015 45.2204H92.5697C92.5697 45.2204 94.1772 41.7028 93.7317 40.4219C93.7317 40.4219 95.1241 41.8698 98.0757 41.2573C101.028 40.6445 100.526 37.6373 98.6884 38.0272C96.8504 38.417 92.8405 37.1918 92.7848 39.475C92.7848 39.475 91.1218 38.2589 90.9546 43.9395L91.9015 45.2204Z" fill="#0657CD"/>
<path fill-rule="evenodd" clip-rule="evenodd" d="M95.1644 44.3201C95.1644 44.1202 95.0022 43.958 94.8023 43.958C94.6024 43.958 94.4404 44.1202 94.4404 44.3201C94.4404 44.52 94.6024 44.6822 94.8023 44.6822C95.0022 44.6822 95.1644 44.52 95.1644 44.3201Z" fill="#131412"/>
<path fill-rule="evenodd" clip-rule="evenodd" d="M97.763 44.6367C97.763 44.4368 97.6011 44.2747 97.4009 44.2747C97.201 44.2747 97.0391 44.4368 97.0391 44.6367C97.0391 44.8366 97.201 44.9988 97.4009 44.9988C97.6011 44.9988 97.763 44.8366 97.763 44.6367Z" fill="#131412"/>
<path fill-rule="evenodd" clip-rule="evenodd" d="M95.6969 43.3787C95.6416 43.3787 95.5876 43.3505 95.557 43.2993C95.4629 43.1417 95.2897 43.0446 95.0935 43.0396C94.9016 43.0359 94.7247 43.1209 94.6245 43.2705C94.5742 43.3453 94.4734 43.365 94.3988 43.3154C94.3242 43.2655 94.3042 43.1644 94.3541 43.0896C94.5167 42.8468 94.7977 42.7076 95.1017 42.7143C95.41 42.7224 95.6848 42.8787 95.8365 43.1328C95.8825 43.2098 95.8573 43.3097 95.7802 43.3557C95.7541 43.3713 95.7253 43.3787 95.6969 43.3787Z" fill="#131412"/>
<path fill-rule="evenodd" clip-rule="evenodd" d="M97.8736 43.5836C97.8136 43.5836 97.7557 43.5502 97.7275 43.4925C97.6778 43.391 97.5484 43.3143 97.4122 43.3058C97.2732 43.2969 97.1299 43.3585 97.0616 43.4554C97.01 43.5289 96.9081 43.5463 96.835 43.4944C96.7615 43.4428 96.7442 43.3414 96.7958 43.2679C96.93 43.0777 97.1817 42.9667 97.4326 42.9813C97.6876 42.9971 97.9181 43.1417 98.0196 43.3494C98.059 43.4301 98.0256 43.5276 97.945 43.5671C97.922 43.5784 97.8977 43.5836 97.8736 43.5836Z" fill="#131412"/>
<path fill-rule="evenodd" clip-rule="evenodd" d="M91.1735 45.8313C91.1266 45.8313 91.0835 45.8007 91.0696 45.7537C90.9501 45.3502 90.7032 44.9835 90.3738 44.7218C90.327 44.6846 90.3194 44.6163 90.3565 44.5696C90.3938 44.5226 90.4619 44.5148 90.5089 44.5523C90.8725 44.8415 91.1455 45.2463 91.2773 45.6921C91.2945 45.7496 91.2617 45.8098 91.2043 45.8267C91.1941 45.83 91.1837 45.8313 91.1735 45.8313Z" fill="#FF7381"/>
<path fill-rule="evenodd" clip-rule="evenodd" d="M93.9542 49.5552H92.6919L93.8187 50.3001L93.9542 49.5552Z" fill="#FF7381"/>
<path fill-rule="evenodd" clip-rule="evenodd" d="M96.3416 46.9933H95.5627C95.5627 46.9933 95.6169 44.7471 96.115 44.9049C96.613 45.0625 96.3416 46.9933 96.3416 46.9933Z" fill="#FF7381"/>
</svg>
