<svg width="35" height="35" viewBox="0 0 35 35" fill="none" xmlns="http://www.w3.org/2000/svg">
<path d="M0.698113 10.9245C1.15094 10.9245 1.39623 10.6604 1.39623 10.2075V5.13208C1.39623 2.67924 2.67924 1.39623 5.13208 1.39623H10.2264C10.6792 1.39623 10.9434 1.15094 10.9434 0.698113C10.9434 0.245283 10.6792 0 10.2264 0H5.09434C1.75472 0 0 1.73585 0 5.0566V10.2075C0 10.6604 0.245283 10.9245 0.698113 10.9245ZM34.3019 10.9245C34.7547 10.9245 35 10.6604 35 10.2075V5.0566C35 1.77358 33.2641 0 29.9245 0H24.7736C24.3208 0 24.0566 0.245283 24.0566 0.698113C24.0566 1.15094 24.3208 1.39623 24.7736 1.39623H29.8679C32.2453 1.39623 33.6038 2.67924 33.6038 5.13208V10.2075C33.6038 10.6604 33.8491 10.9245 34.3019 10.9245ZM15.9623 20.0377H16.1321C17.6604 20.0377 18.434 19.283 18.434 17.7358V11.9434C18.434 11.5094 18.2264 11.3019 17.7925 11.3019C17.3774 11.3019 17.1509 11.5094 17.1509 11.9434V17.9057C17.1509 18.4151 16.7358 18.7358 16.3208 18.7358H15.6792C15.3208 18.7358 15.0566 19 15.0566 19.3585C15.0566 19.8113 15.3396 20.0377 15.9623 20.0377ZM10.717 15.6981C11.283 15.6981 11.6415 15.3396 11.6415 14.7736V12.2642C11.6415 11.6792 11.283 11.3208 10.717 11.3208C10.1698 11.3208 9.81132 11.6981 9.81132 12.2642V14.7736C9.81132 15.3396 10.1698 15.6981 10.717 15.6981ZM24.1132 15.6981C24.6604 15.6981 25.0189 15.3396 25.0189 14.7736V12.2642C25.0189 11.6981 24.6604 11.3208 24.1132 11.3208C23.5472 11.3208 23.1698 11.6792 23.1698 12.2642V14.7736C23.1698 15.3396 23.5472 15.6981 24.1132 15.6981ZM17.3396 25.8113C19.4151 25.8113 21.4906 24.9434 23.0189 23.4151C23.1321 23.3208 23.2453 23.1509 23.2453 22.9057C23.2453 22.5283 22.9623 22.283 22.6226 22.283C22.4151 22.283 22.2453 22.3396 22 22.6038C20.8679 23.7358 19.1132 24.5472 17.3396 24.5472C15.566 24.5472 13.8302 23.7358 12.6792 22.6038C12.4528 22.3585 12.283 22.283 12.0566 22.283C11.717 22.283 11.434 22.5283 11.434 22.9057C11.434 23.1321 11.5472 23.3019 11.6604 23.4151C13.1509 24.9623 15.2642 25.8113 17.3396 25.8113ZM5.09434 35H10.2264C10.6792 35 10.9434 34.7547 10.9434 34.3019C10.9434 33.8491 10.6792 33.6038 10.2264 33.6038H5.13208C2.67924 33.6038 1.39623 32.3208 1.39623 29.8491V24.7925C1.39623 24.3396 1.15094 24.0566 0.698113 24.0566C0.245283 24.0566 0 24.3396 0 24.7925V29.9245C0 33.2641 1.75472 35 5.09434 35ZM24.7736 35H29.9245C33.2641 35 35 33.2075 35 29.9245V24.7925C35 24.3396 34.7547 24.0566 34.3019 24.0566C33.8491 24.0566 33.6038 24.3396 33.6038 24.7925V29.8491C33.6038 32.3208 32.2453 33.6038 29.8679 33.6038H24.7736C24.3208 33.6038 24.0566 33.8491 24.0566 34.3019C24.0566 34.7547 24.3208 35 24.7736 35Z" fill="#029656"/>
</svg>
