<svg width="40" height="40" viewBox="0 0 40 40" fill="none" xmlns="http://www.w3.org/2000/svg">
<path d="M39.5 20C39.5 30.7696 30.7696 39.5 20 39.5C9.23045 39.5 0.5 30.7696 0.5 20C0.5 9.23045 9.23045 0.5 20 0.5C30.7696 0.5 39.5 9.23045 39.5 20Z" fill="#F4F9FF" stroke="#029656"/>
<path d="M25.0002 11.6667H22.5002C21.3951 11.6667 20.3353 12.1056 19.5539 12.887C18.7725 13.6684 18.3335 14.7283 18.3335 15.8333V18.3333H15.8335V21.6667H18.3335V28.3333H21.6668V21.6667H24.1668L25.0002 18.3333H21.6668V15.8333C21.6668 15.6123 21.7546 15.4003 21.9109 15.2441C22.0672 15.0878 22.2791 15 22.5002 15H25.0002V11.6667Z" stroke="#029656" stroke-width="1.4" stroke-linecap="round" stroke-linejoin="round"/>
</svg>
