<svg width="90" height="161" viewBox="0 0 90 161" fill="none" xmlns="http://www.w3.org/2000/svg">
<path fill-rule="evenodd" clip-rule="evenodd" d="M15.2194 109.854L21.8906 161H63.6972L69.9235 109.854H15.2194Z" fill="#19243C"/>
<path fill-rule="evenodd" clip-rule="evenodd" d="M16.2058 117.414H69.0035L69.9235 109.854H15.2194L16.2058 117.414Z" fill="#2E3A54"/>
<path fill-rule="evenodd" clip-rule="evenodd" d="M5.87958 99.624L10.3268 112.966H74.2229L78.3738 99.624H5.87958Z" fill="#19243C"/>
<path fill-rule="evenodd" clip-rule="evenodd" d="M0 83.1682C0 83.1682 7.11534 77.3866 9.78404 79.6099C12.4521 81.8338 20.9024 99.6239 20.9024 99.6239H31.1318C31.1318 99.6239 12.8969 57.8173 0 83.1682Z" fill="#009B56"/>
<path fill-rule="evenodd" clip-rule="evenodd" d="M49.3667 99.6241C49.3667 99.6241 68.0458 75.6076 86.7255 72.0493C86.7255 72.0493 79.1642 88.9499 60.9299 99.6241H49.3667Z" fill="#009B56"/>
<path fill-rule="evenodd" clip-rule="evenodd" d="M16.1706 28.0195C16.1706 28.0195 11.268 73.3838 29.3703 99.6242H36.9134C36.9134 99.6242 27.8617 54.7047 16.1706 28.0195Z" fill="#00CD74"/>
<path fill-rule="evenodd" clip-rule="evenodd" d="M30.4899 0C30.4899 0 27.3758 70.7151 36.2709 99.6242H44.9435C44.9435 99.6242 54.061 47.1434 30.4899 0Z" fill="#009B56"/>
<path fill-rule="evenodd" clip-rule="evenodd" d="M43.3622 99.6245C53.9225 68.0948 52.9244 20.9039 90.2832 3.11377C67.1428 26.4513 83.612 59.1522 49.3673 99.6245H43.3622Z" fill="#00CD74"/>
</svg>
