<svg width="24" height="24" viewBox="0 0 24 24" fill="none" xmlns="http://www.w3.org/2000/svg">
<path d="M20.6037 10.1935L19.8467 9.58429L18.9237 8.8366L16.099 6.56583L14.9544 5.64275L12.739 3.85198C12.5361 3.68141 12.2795 3.58789 12.0144 3.58789C11.7493 3.58789 11.4927 3.68141 11.2898 3.85198L9.04673 5.64275L7.89288 6.56583L5.07749 8.8366L4.15442 9.58429L3.40673 10.1843C3.31125 10.2614 3.25031 10.3733 3.23733 10.4953C3.22435 10.6174 3.26038 10.7396 3.3375 10.8351C3.41461 10.9305 3.5265 10.9915 3.64854 11.0045C3.77058 11.0174 3.89279 10.9814 3.98826 10.9043L4.15442 10.7751V18.1043C4.15685 18.7156 4.40076 19.3011 4.83301 19.7334C5.26526 20.1656 5.85082 20.4096 6.46211 20.412H17.539C18.1511 20.412 18.738 20.1688 19.1708 19.7361C19.6036 19.3033 19.8467 18.7163 19.8467 18.1043V10.7658L20.0221 10.9043C20.1013 10.973 20.2035 11.0093 20.3083 11.0058C20.4022 11.0049 20.4937 10.9753 20.5704 10.921C20.6471 10.8667 20.7054 10.7903 20.7375 10.702C20.7696 10.6137 20.774 10.5177 20.7501 10.4269C20.7261 10.336 20.6751 10.2546 20.6037 10.1935ZM18.9237 18.1043C18.9237 18.4715 18.7778 18.8237 18.5181 19.0834C18.2584 19.343 17.9063 19.4889 17.539 19.4889H6.46211C6.09563 19.4865 5.74486 19.3398 5.48571 19.0807C5.22657 18.8215 5.07991 18.4708 5.07749 18.1043V10.0551L9.37903 6.56583L10.5236 5.64275L11.8621 4.56275C11.9012 4.52707 11.9522 4.5073 12.0052 4.5073C12.0581 4.5073 12.1092 4.52707 12.1483 4.56275L13.4867 5.64275L14.6313 6.56583L18.9237 10.0551V18.1043Z" fill="#8282AA"/>
<path d="M13.3852 16.5167H10.616C10.2487 16.5167 9.89656 16.3709 9.6369 16.1112C9.37723 15.8515 9.23135 15.4993 9.23135 15.1321V12.3629C9.23377 11.9964 9.38043 11.6456 9.63957 11.3865C9.89871 11.1273 10.2495 10.9807 10.616 10.9783H13.3852C13.7524 10.9783 14.1046 11.1242 14.3643 11.3838C14.6239 11.6435 14.7698 11.9957 14.7698 12.3629V15.1321C14.7698 15.4993 14.6239 15.8515 14.3643 16.1112C14.1046 16.3709 13.7524 16.5167 13.3852 16.5167ZM10.616 11.9013C10.4943 11.9037 10.3783 11.9531 10.2922 12.0391C10.2062 12.1252 10.1568 12.2412 10.1544 12.3629V15.1321C10.1544 15.2545 10.2031 15.3719 10.2896 15.4585C10.3762 15.545 10.4936 15.5937 10.616 15.5937H13.3852C13.5076 15.5937 13.625 15.545 13.7116 15.4585C13.7981 15.3719 13.8467 15.2545 13.8467 15.1321V12.3629C13.8467 12.2405 13.7981 12.1231 13.7116 12.0365C13.625 11.95 13.5076 11.9013 13.3852 11.9013H10.616Z" fill="#8282AA"/>
</svg>
