<svg width="24" height="24" viewBox="0 0 24 24" fill="none" xmlns="http://www.w3.org/2000/svg">
<path d="M20.6037 10.1936L19.8467 9.58441L18.9237 8.83672L16.099 6.56595L14.9544 5.64287L12.739 3.8521C12.5361 3.68153 12.2795 3.58801 12.0144 3.58801C11.7493 3.58801 11.4927 3.68153 11.2898 3.8521L9.04673 5.64287L7.89288 6.56595L5.07749 8.83672L4.15442 9.58441L3.40673 10.1844C3.31125 10.2615 3.25031 10.3734 3.23733 10.4955C3.22435 10.6175 3.26038 10.7397 3.3375 10.8352C3.41461 10.9307 3.5265 10.9916 3.64854 11.0046C3.77058 11.0176 3.89279 10.9815 3.98826 10.9044L4.15442 10.7752V18.1044C4.15685 18.7157 4.40076 19.3013 4.83301 19.7335C5.26526 20.1658 5.85082 20.4097 6.46211 20.4121H17.539C18.1511 20.4121 18.738 20.169 19.1708 19.7362C19.6036 19.3034 19.8467 18.7164 19.8467 18.1044V10.7659L20.0221 10.9044C20.1013 10.9732 20.2035 11.0094 20.3083 11.0059C20.4022 11.005 20.4937 10.9754 20.5704 10.9212C20.6471 10.8669 20.7054 10.7905 20.7375 10.7022C20.7696 10.6139 20.774 10.5179 20.7501 10.427C20.7261 10.3361 20.6751 10.2547 20.6037 10.1936ZM18.9237 18.1044C18.9237 18.4716 18.7778 18.8238 18.5181 19.0835C18.2584 19.3431 17.9063 19.489 17.539 19.489H6.46211C6.09563 19.4866 5.74486 19.34 5.48571 19.0808C5.22657 18.8217 5.07991 18.4709 5.07749 18.1044V10.0552L9.37903 6.56595L10.5236 5.64287L11.8621 4.56287C11.9012 4.5272 11.9522 4.50742 12.0052 4.50742C12.0581 4.50742 12.1092 4.5272 12.1483 4.56287L13.4867 5.64287L14.6313 6.56595L18.9237 10.0552V18.1044Z" fill="#029656"/>
<path d="M13.3852 16.5166H10.616C10.2487 16.5166 9.89656 16.3707 9.6369 16.1111C9.37723 15.8514 9.23135 15.4992 9.23135 15.132V12.3628C9.23377 11.9963 9.38043 11.6455 9.63957 11.3864C9.89871 11.1272 10.2495 10.9806 10.616 10.9781H13.3852C13.7524 10.9781 14.1046 11.124 14.3643 11.3837C14.6239 11.6434 14.7698 11.9955 14.7698 12.3628V15.132C14.7698 15.4992 14.6239 15.8514 14.3643 16.1111C14.1046 16.3707 13.7524 16.5166 13.3852 16.5166ZM10.616 11.9012C10.4943 11.9036 10.3783 11.953 10.2922 12.039C10.2062 12.1251 10.1568 12.2411 10.1544 12.3628V15.132C10.1544 15.2544 10.2031 15.3718 10.2896 15.4584C10.3762 15.5449 10.4936 15.5935 10.616 15.5935H13.3852C13.5076 15.5935 13.625 15.5449 13.7116 15.4584C13.7981 15.3718 13.8467 15.2544 13.8467 15.132V12.3628C13.8467 12.2404 13.7981 12.123 13.7116 12.0364C13.625 11.9499 13.5076 11.9012 13.3852 11.9012H10.616Z" fill="#FF7427"/>
</svg>
