<svg width="40" height="40" viewBox="0 0 40 40" fill="none" xmlns="http://www.w3.org/2000/svg">
<path d="M39.5 20C39.5 30.7696 30.7696 39.5 20 39.5C9.23045 39.5 0.5 30.7696 0.5 20C0.5 9.23045 9.23045 0.5 20 0.5C30.7696 0.5 39.5 9.23045 39.5 20Z" fill="#F4F9FF" stroke="#029656"/>
<path d="M24.45 14.55C24.2522 14.55 24.0589 14.6086 23.8944 14.7185C23.73 14.8284 23.6018 14.9846 23.5261 15.1673C23.4504 15.35 23.4306 15.5511 23.4692 15.7451C23.5078 15.9391 23.603 16.1173 23.7429 16.2571C23.8827 16.397 24.0609 16.4922 24.2549 16.5308C24.4489 16.5694 24.65 16.5496 24.8327 16.4739C25.0154 16.3982 25.1716 16.27 25.2815 16.1056C25.3914 15.9411 25.45 15.7478 25.45 15.55C25.45 15.2848 25.3446 15.0304 25.1571 14.8429C24.9696 14.6554 24.7152 14.55 24.45 14.55V14.55ZM28.2833 16.5667C28.2671 15.8752 28.1376 15.1912 27.9 14.5417C27.6881 13.9859 27.3583 13.4827 26.9333 13.0667C26.5207 12.6395 26.0163 12.3118 25.4583 12.1083C24.8105 11.8635 24.1257 11.731 23.4333 11.7167C22.55 11.6667 22.2667 11.6667 20 11.6667C17.7333 11.6667 17.45 11.6667 16.5667 11.7167C15.8743 11.731 15.1895 11.8635 14.5417 12.1083C13.9847 12.3139 13.4808 12.6413 13.0667 13.0667C12.6395 13.4793 12.3118 13.9837 12.1083 14.5417C11.8635 15.1895 11.731 15.8743 11.7167 16.5667C11.6667 17.45 11.6667 17.7333 11.6667 20C11.6667 22.2667 11.6667 22.55 11.7167 23.4333C11.731 24.1257 11.8635 24.8105 12.1083 25.4583C12.3118 26.0163 12.6395 26.5207 13.0667 26.9333C13.4808 27.3587 13.9847 27.6861 14.5417 27.8917C15.1895 28.1365 15.8743 28.269 16.5667 28.2833C17.45 28.3333 17.7333 28.3333 20 28.3333C22.2667 28.3333 22.55 28.3333 23.4333 28.2833C24.1257 28.269 24.8105 28.1365 25.4583 27.8917C26.0163 27.6882 26.5207 27.3605 26.9333 26.9333C27.3602 26.5188 27.6903 26.0152 27.9 25.4583C28.1376 24.8088 28.2671 24.1248 28.2833 23.4333C28.2833 22.55 28.3333 22.2667 28.3333 20C28.3333 17.7333 28.3333 17.45 28.2833 16.5667V16.5667ZM26.7833 23.3333C26.7773 23.8623 26.6815 24.3864 26.5 24.8833C26.3669 25.246 26.1532 25.5737 25.875 25.8417C25.6047 26.1171 25.2777 26.3304 24.9167 26.4667C24.4198 26.6481 23.8956 26.7439 23.3667 26.75C22.5333 26.7917 22.225 26.8 20.0333 26.8C17.8417 26.8 17.5333 26.8 16.7 26.75C16.1507 26.7603 15.6038 26.6757 15.0833 26.5C14.7382 26.3567 14.4261 26.144 14.1667 25.875C13.8901 25.6073 13.679 25.2793 13.55 24.9167C13.3465 24.4126 13.2337 23.8766 13.2167 23.3333C13.2167 22.5 13.1667 22.1917 13.1667 20C13.1667 17.8083 13.1667 17.5 13.2167 16.6667C13.2204 16.1259 13.3191 15.59 13.5083 15.0833C13.655 14.7316 13.8802 14.418 14.1667 14.1667C14.4198 13.8801 14.7327 13.6526 15.0833 13.5C15.5913 13.3167 16.1267 13.2209 16.6667 13.2167C17.5 13.2167 17.8083 13.1667 20 13.1667C22.1917 13.1667 22.5 13.1667 23.3333 13.2167C23.8623 13.2227 24.3864 13.3185 24.8833 13.5C25.262 13.6405 25.6019 13.869 25.875 14.1667C26.1481 14.4226 26.3615 14.7356 26.5 15.0833C26.6852 15.5908 26.7811 16.1265 26.7833 16.6667C26.825 17.5 26.8333 17.8083 26.8333 20C26.8333 22.1917 26.825 22.5 26.7833 23.3333ZM20 15.725C19.1548 15.7266 18.3291 15.9788 17.6272 16.4495C16.9253 16.9203 16.3786 17.5885 16.0564 18.3698C15.7341 19.1511 15.6506 20.0104 15.8165 20.8391C15.9824 21.6678 16.3902 22.4288 16.9884 23.0258C17.5866 23.6229 18.3483 24.0292 19.1774 24.1935C20.0064 24.3577 20.8656 24.2726 21.6462 23.9488C22.4269 23.625 23.0941 23.077 23.5634 22.3742C24.0328 21.6714 24.2833 20.8452 24.2833 20C24.2844 19.4376 24.1743 18.8805 23.9594 18.3608C23.7444 17.8411 23.4288 17.369 23.0307 16.9717C22.6327 16.5744 22.16 16.2597 21.6398 16.0458C21.1197 15.8318 20.5624 15.7228 20 15.725V15.725ZM20 22.775C19.4512 22.775 18.9146 22.6123 18.4583 22.3073C18.0019 22.0024 17.6463 21.569 17.4362 21.0619C17.2262 20.5549 17.1712 19.9969 17.2783 19.4586C17.3854 18.9203 17.6497 18.4259 18.0378 18.0378C18.4259 17.6497 18.9203 17.3854 19.4586 17.2783C19.9969 17.1712 20.5549 17.2262 21.0619 17.4362C21.569 17.6463 22.0024 18.0019 22.3073 18.4583C22.6123 18.9146 22.775 19.4512 22.775 20C22.775 20.3644 22.7032 20.7253 22.5638 21.0619C22.4243 21.3986 22.2199 21.7045 21.9622 21.9622C21.7045 22.2199 21.3986 22.4243 21.0619 22.5638C20.7253 22.7032 20.3644 22.775 20 22.775V22.775Z" fill="#029656"/>
</svg>
