<svg width="24" height="24" viewBox="0 0 24 24" fill="none" xmlns="http://www.w3.org/2000/svg">
<path d="M13.7642 10.3894H10.2842C10.1618 10.3894 10.0444 10.3408 9.95781 10.2542C9.87126 10.1676 9.82263 10.0503 9.82263 9.92785C9.82263 9.80544 9.87126 9.68805 9.95781 9.60149C10.0444 9.51494 10.1618 9.46631 10.2842 9.46631H13.7642C13.8866 9.46631 14.004 9.51494 14.0905 9.60149C14.1771 9.68805 14.2257 9.80544 14.2257 9.92785C14.2257 10.0503 14.1771 10.1676 14.0905 10.2542C14.004 10.3408 13.8866 10.3894 13.7642 10.3894Z" fill="#F96B1C"/>
<path d="M17.2072 6.65078C16.4005 5.2789 15.0832 4.28241 13.5435 3.87934C12.0039 3.47627 10.3673 3.69944 8.99183 4.50001C8.46483 4.8064 7.98842 5.19251 7.57952 5.64463C6.99833 6.29349 6.56258 7.0591 6.30149 7.89014C6.0404 8.72118 5.96 9.59844 6.06568 10.4631C6.21775 11.1013 6.44067 11.7205 6.73029 12.3092C6.87798 12.6231 7.00722 12.8816 7.09952 13.0569L8.0226 14.9031C7.64352 15.0813 7.33629 15.3831 7.15138 15.7589C6.96648 16.1348 6.91488 16.5623 7.00506 16.9714C7.09524 17.3804 7.32185 17.7466 7.64766 18.0099C7.97347 18.2731 8.37912 18.4178 8.79798 18.42H9.72106C9.8174 18.9521 10.0975 19.4334 10.5125 19.7801C10.9276 20.1267 11.4511 20.3165 11.9918 20.3165C12.5326 20.3165 13.0561 20.1267 13.4711 19.7801C13.8861 19.4334 14.1663 18.9521 14.2626 18.42H15.1857C15.6753 18.42 16.1449 18.2255 16.4911 17.8793C16.8373 17.5331 17.0318 17.0635 17.0318 16.5739C17.0325 16.2279 16.936 15.8886 16.7532 15.5948C16.5704 15.3011 16.3087 15.0646 15.998 14.9123L16.9211 13.0662C17.0041 12.9 17.1149 12.6877 17.2257 12.4385C17.52 11.8018 17.7489 11.1368 17.9088 10.4539C18.1149 9.14327 17.8674 7.80158 17.2072 6.65078ZM12.0195 19.3892C11.7339 19.3884 11.4554 19.2993 11.2224 19.134C10.9894 18.9688 10.8132 18.7355 10.718 18.4662H13.3303C13.2322 18.7355 13.0541 18.9683 12.8197 19.1334C12.5854 19.2984 12.3061 19.3877 12.0195 19.3892ZM16.1734 16.5739C16.1734 16.8187 16.0761 17.0535 15.903 17.2266C15.7299 17.3997 15.4951 17.4969 15.2503 17.4969H8.78875C8.54394 17.4969 8.30915 17.3997 8.13604 17.2266C7.96293 17.0535 7.86568 16.8187 7.86568 16.5739C7.86568 16.329 7.96293 16.0943 8.13604 15.9211C8.30915 15.748 8.54394 15.6508 8.78875 15.6508H15.2503C15.3781 15.6497 15.5045 15.6781 15.6195 15.7339C15.7832 15.8053 15.9226 15.9227 16.021 16.0718C16.1193 16.2209 16.1722 16.3953 16.1734 16.5739ZM17.0595 10.26C16.9041 10.8811 16.7214 11.4844 16.4411 12.06C16.3395 12.2908 16.238 12.4846 16.1272 12.6877L15.0749 14.7277H12.4903V11.6169C12.4903 11.4945 12.4417 11.3771 12.3551 11.2906C12.2686 11.204 12.1512 11.1554 12.0288 11.1554C11.9063 11.1554 11.789 11.204 11.7024 11.2906C11.6158 11.3771 11.5672 11.4945 11.5672 11.6169V14.7462H8.95491L7.92106 12.6692C7.82875 12.5031 7.70875 12.2631 7.57029 11.9677C7.31448 11.4398 7.11641 10.8858 6.97952 10.3154C6.90035 9.58788 6.97355 8.85185 7.19446 8.15417C7.41536 7.45649 7.77913 6.81246 8.2626 6.26309C8.61317 5.89599 9.01785 5.58469 9.4626 5.34001C10.0395 5.00517 10.6768 4.7873 11.338 4.69886C11.9992 4.61042 12.6713 4.65315 13.3159 4.8246C13.9606 4.99606 14.5652 5.29287 15.095 5.69808C15.6249 6.10329 16.0698 6.60895 16.4041 7.18617C16.9547 8.11081 17.1851 9.1912 17.0595 10.26Z" fill="#029656"/>
</svg>
