<svg width="92" height="177" viewBox="0 0 92 177" fill="none" xmlns="http://www.w3.org/2000/svg">
<path fill-rule="evenodd" clip-rule="evenodd" d="M13.1366 99.5601L1.53836 56.1225C-1.65621 44.1596 0.16045 31.7647 6.65413 21.2217C13.1474 10.6788 23.3986 3.47826 35.5196 0.947629C54.2912 -2.97119 73.4166 5.49821 83.1084 22.0255C83.7147 23.0594 84.4693 24.3466 92.2332 49.1838C95.9577 61.0984 99.5432 72.8482 99.579 72.9657L85.908 77.1356C79.5193 56.1917 72.0775 32.4764 70.6335 29.0093C64.0044 17.9436 51.1051 12.2948 38.4412 14.9385C30.2032 16.6586 23.2368 21.5515 18.8239 28.7167C14.4109 35.8819 13.1764 44.3053 15.3469 52.4356L26.9457 95.8727L13.1366 99.5601Z" fill="#1A72F1"/>
<path fill-rule="evenodd" clip-rule="evenodd" d="M16.9921 82.9475L0.317383 91.0465C0.317383 91.0465 15.5843 199.055 88.9423 171.616L16.9921 82.9475Z" fill="#1A72F1"/>
<path fill-rule="evenodd" clip-rule="evenodd" d="M16.9919 82.9474L107.988 61.5085C107.988 61.5085 167.065 140.594 99.889 168.227C32.7137 195.86 16.9919 82.9474 16.9919 82.9474Z" fill="#A7DEFF"/>
<path fill-rule="evenodd" clip-rule="evenodd" d="M33.8826 93.0656C35.0429 99.931 42.6322 139.612 64.7332 152.38C73.367 157.368 83.3041 157.673 94.2693 153.285C106.294 148.474 113.757 141.057 116.451 131.24C122.423 109.478 103.401 82.1263 100.286 77.8478L33.8826 93.0656ZM79.5717 158.606C73.8992 158.606 68.5654 157.175 63.6127 154.313C50.4743 146.72 42.4414 130.246 38.0159 117.763C33.2527 104.326 31.5249 92.487 31.5084 92.3686L31.3623 91.3512L101.198 75.3467L101.635 75.9154C101.694 75.9927 107.632 83.7736 112.657 94.4453C117.327 104.366 122.151 118.904 118.607 131.825C115.719 142.356 107.81 150.274 95.0995 155.359C89.6884 157.524 84.502 158.606 79.5717 158.606Z" fill="#FFFFFE"/>
<path fill-rule="evenodd" clip-rule="evenodd" d="M69.875 94.7347C81.1788 90.7301 89.6362 107.757 84.0244 118.577L93.6962 134.333L74.4961 140.118V120.611C65.0992 116.536 58.5711 98.7389 69.875 94.7347Z" fill="#1A72F1"/>
</svg>
