<svg width="89" height="23" viewBox="0 0 89 23" fill="none" xmlns="http://www.w3.org/2000/svg">
<path d="M5.08 22V13.392H16.28V22H21.08V0.559999H16.28V9.072H5.08V0.559999H0.28V22H5.08ZM28.583 22.32C32.135 22.32 34.375 20.816 35.111 18.32H35.367V22H39.847V12.592C39.847 8.4 37.319 5.648 31.975 5.648C26.695 5.648 23.367 8.4 23.367 12.368V12.464H28.199V12.336C28.199 10.512 29.191 9.872 31.623 9.872C34.183 9.872 35.111 10.448 35.111 12.528V13.136L28.231 13.84C24.807 14.192 23.047 15.664 23.047 18.032C23.047 20.72 25.127 22.32 28.583 22.32ZM27.879 17.712C27.879 16.944 28.391 16.624 29.543 16.528L35.111 15.888C34.983 18.16 33.223 18.928 29.959 18.928C28.551 18.928 27.879 18.576 27.879 17.712ZM47.08 22V12.72C47.08 10.704 47.848 9.712 49.992 9.712C51.944 9.712 52.648 10.48 52.648 12.24V13.904H57.448V11.248C57.448 8.112 55.976 5.648 52.392 5.648C49.16 5.648 47.464 7.632 47.016 10.224H46.728V5.968H42.28V22H47.08ZM65.2663 22V9.936H70.2263V5.968H65.0743C64.9463 4.4 65.9383 4.048 68.0503 4.048H70.2263V0.559999H68.8183C63.8903 0.559999 61.0743 2.736 60.5623 5.968H58.1943V9.936H60.4663V22H65.2663ZM76.7393 22.32C80.2913 22.32 82.5313 20.816 83.2673 18.32H83.5233V22H88.0033V12.592C88.0033 8.4 85.4753 5.648 80.1313 5.648C74.8513 5.648 71.5233 8.4 71.5233 12.368V12.464H76.3553V12.336C76.3553 10.512 77.3473 9.872 79.7793 9.872C82.3393 9.872 83.2673 10.448 83.2673 12.528V13.136L76.3873 13.84C72.9633 14.192 71.2033 15.664 71.2033 18.032C71.2033 20.72 73.2833 22.32 76.7393 22.32ZM76.0353 17.712C76.0353 16.944 76.5473 16.624 77.6993 16.528L83.2673 15.888C83.1393 18.16 81.3793 18.928 78.1153 18.928C76.7073 18.928 76.0353 18.576 76.0353 17.712Z" fill="#BB3E03"/>
</svg>
