<svg width="143" height="529" viewBox="0 0 143 529" fill="none" xmlns="http://www.w3.org/2000/svg">
<path fill-rule="evenodd" clip-rule="evenodd" d="M209.833 389.035L144.138 385.062L140.777 451.979L208.312 459.924L209.833 389.035Z" fill="#FFF03D"/>
<path fill-rule="evenodd" clip-rule="evenodd" d="M14.7459 86.2771L29.7777 81.6449C30.8043 81.3328 31.3894 80.2556 31.0944 79.2249L19.6992 42.105C19.4034 41.0718 18.3327 40.468 17.2954 40.7491L1.45128 45.0481C0.366758 45.3431 -0.25169 46.4854 0.097868 47.5537L12.3047 85.0068C12.6363 86.0253 13.7216 86.5892 14.7459 86.2771Z" fill="#DBF5FF"/>
<path fill-rule="evenodd" clip-rule="evenodd" d="M94.6381 295.076C94.6381 295.076 98.5085 395.222 102.277 428.223C105.216 453.959 114.499 504.076 114.499 504.076H128.096C128.096 504.076 138.383 328.076 142.509 295.076H94.6381Z" fill="#FF7381"/>
<path fill-rule="evenodd" clip-rule="evenodd" d="M114.499 504.076L116.944 517.521L102.277 528.215H127.638L128.096 504.076H114.499Z" fill="#19243C"/>
<path fill-rule="evenodd" clip-rule="evenodd" d="M116.638 15.0334L114.194 33.0613L118.777 35.2002V40.0084C118.777 42.5368 120.575 44.7099 123.059 45.1825L125.194 45.5891V56.8947H143.222L141.083 38.5613L132.527 13.8112L116.638 15.0334Z" fill="#FD9F9D"/>
<path fill-rule="evenodd" clip-rule="evenodd" d="M131.916 38.5613H141.083C141.083 38.5613 140.472 4.64447 129.777 5.25558L119.083 5.8667C119.083 5.8667 115.11 -3.30002 108.388 1.28334C101.666 5.8667 107.777 19.6168 124.736 17.4779L125.776 26.7375L128.22 27.043C135.084 22.2755 138.206 26.9151 130.97 31.6264L131.916 38.5613Z" fill="#029656"/>
<path fill-rule="evenodd" clip-rule="evenodd" d="M119.47 26.4539C119.47 25.6733 120.101 25.041 120.883 25.041C121.663 25.041 122.296 25.6733 122.296 26.4539C122.296 27.2345 121.663 27.8668 120.883 27.8668C120.101 27.8668 119.47 27.2345 119.47 26.4539Z" fill="#131412"/>
<path fill-rule="evenodd" clip-rule="evenodd" d="M197.305 295.076C197.305 295.076 210.597 56.8947 141.083 53.9924C141.083 53.9924 107.014 49.8669 93.2635 72.7837C79.5134 95.7005 47.8878 160.784 47.8878 160.784L24.0544 92.9505L14.8877 95.2418C14.8877 95.2418 28.2743 201.801 52.0133 204.326C73.5546 206.618 88.6801 168.118 88.6801 168.118L94.6381 295.076H197.305Z" fill="#19243C"/>
<path fill-rule="evenodd" clip-rule="evenodd" d="M159.855 54.7559C166.736 54.7559 167.837 64.5337 167.837 64.5337H152.463C152.463 64.5337 152.973 54.7559 159.855 54.7559ZM146.304 65.0616C146.505 61.2585 147.998 48.9503 158.936 48.9503C171.763 48.9503 172.183 64.7481 172.189 65.0191C175.418 65.9331 178.213 68.092 179.9 71.1012L183.077 76.7691C186.031 82.0369 188.332 87.6453 189.93 93.4696L196.996 119.228L204.024 125.34L204.971 149.259C205.15 153.763 203.85 158.201 201.271 161.898L201.116 162.121C197.793 166.882 192.625 170.039 186.867 170.784C171.551 172.765 142.147 174.627 138.33 160.479C138.195 159.981 138.065 159.451 137.939 158.892C124.272 173.736 108.579 185.954 89.2546 193.473L88.7967 183.71C104.517 177.643 120.413 164.874 136.391 148.984C133.437 122.561 134.372 73.7315 136.191 72.1727C121.589 58.157 105.991 60.1427 105.991 60.1427L118.558 55.4509C129.943 56.2576 138.58 64.2226 141.518 67.3006C142.973 66.2792 144.594 65.5229 146.304 65.0616Z" fill="#131412"/>
<path fill-rule="evenodd" clip-rule="evenodd" d="M88.6801 168.118L101.514 143.367L89.411 183.71L88.6801 168.118Z" fill="#2E3A54"/>
<path fill-rule="evenodd" clip-rule="evenodd" d="M47.8879 160.784L43.7632 169.493L45.8256 154.914L47.8879 160.784Z" fill="#2E3A54"/>
<path fill-rule="evenodd" clip-rule="evenodd" d="M94.797 299.096C94.6943 296.52 94.6381 295.076 94.6381 295.076H142.509C142.276 296.941 142.022 299.267 141.753 301.988L94.797 299.096Z" fill="#FF516C"/>
<path fill-rule="evenodd" clip-rule="evenodd" d="M118.793 23.7911C118.944 23.7911 119.089 23.7072 119.16 23.5622C119.416 23.0374 119.958 22.6642 120.54 22.6121C121.116 22.5599 121.721 22.8305 122.067 23.3014C122.199 23.4831 122.455 23.5222 122.636 23.3886C122.817 23.2558 122.856 23.0008 122.723 22.8191C122.212 22.1232 121.327 21.7231 120.466 21.8005C119.607 21.8779 118.806 22.4296 118.428 23.2053C118.329 23.4073 118.413 23.651 118.615 23.7496C118.673 23.7781 118.734 23.7911 118.793 23.7911Z" fill="#131412"/>
<path fill-rule="evenodd" clip-rule="evenodd" d="M128.708 30.6013C128.78 30.6013 128.853 30.5825 128.919 30.5418L133.197 27.945C133.389 27.8284 133.45 27.5775 133.334 27.3852C133.217 27.1929 132.966 27.1318 132.774 27.2483L128.496 29.8459C128.304 29.9625 128.243 30.2134 128.359 30.4057C128.436 30.532 128.57 30.6013 128.708 30.6013Z" fill="#FF7381"/>
<path fill-rule="evenodd" clip-rule="evenodd" d="M30.1223 76.0618L31.0944 79.2249C31.3894 80.2556 30.8035 81.332 29.7777 81.6449L14.7459 86.2763C13.7217 86.5892 12.6363 86.0254 12.3047 85.006L11.2576 81.7957L30.1223 76.0618Z" fill="#131412"/>
<path fill-rule="evenodd" clip-rule="evenodd" d="M14.8877 95.2418L7.09636 80.4227L15.6512 71.7139C16.4798 72.6346 16.655 73.9701 16.0928 75.0726L13.0543 81.0338L14.8877 85.7695L21.9155 84.0893L24.0544 92.9497L14.8877 95.2418Z" fill="#FD9F9D"/>
<path fill-rule="evenodd" clip-rule="evenodd" d="M7.71646 61.5621C7.71646 57.2216 11.2349 53.704 15.5754 53.704C19.9151 53.704 23.4343 57.2216 23.4343 61.5621C23.4343 65.9026 19.9151 69.4218 15.5754 69.4218C11.2349 69.4218 7.71646 65.9026 7.71646 61.5621Z" fill="#FFFFFE"/>
<path fill-rule="evenodd" clip-rule="evenodd" d="M11.4097 67.9495L8.67114 62.0787C8.38595 61.4676 8.65077 60.7399 9.26188 60.4539C9.87381 60.1687 10.6014 60.4344 10.8866 61.0455L12.2735 64.0179L19.3037 58.0747C19.8187 57.6387 20.5887 57.7039 21.0246 58.2205C21.4614 58.7355 21.3962 59.5055 20.8804 59.9414L11.4097 67.9495Z" fill="#00CD74"/>
<path fill-rule="evenodd" clip-rule="evenodd" d="M1.45129 45.0481L17.2963 40.7491C18.3327 40.468 19.4034 41.0718 19.6992 42.105L20.4887 44.6749L0.847507 49.8531L0.0978756 47.5528C-0.251682 46.4846 0.366764 45.3422 1.45129 45.0481Z" fill="#131412"/>
<path fill-rule="evenodd" clip-rule="evenodd" d="M51.0444 65.8904L50.6484 67.4711L59.5984 69.7135L59.9944 68.1328L51.0444 65.8904Z" fill="#A7DEFF"/>
<path fill-rule="evenodd" clip-rule="evenodd" d="M56.8663 52.2568L56.7857 53.8914L70.3076 54.5546L70.3875 52.9209L56.8663 52.2568Z" fill="#A7DEFF"/>
<path fill-rule="evenodd" clip-rule="evenodd" d="M64.2682 26.062L50.7764 33.2243L51.5407 34.6641L65.0325 27.5018L64.2682 26.062Z" fill="#A7DEFF"/>
<path fill-rule="evenodd" clip-rule="evenodd" d="M37.0834 27.1018C38.9729 22.7156 40.6849 18.1933 42.1703 13.6589L40.6221 13.1512C39.1514 17.6393 37.4574 22.1159 35.5873 26.4572L37.0834 27.1018Z" fill="#A7DEFF"/>
<path fill-rule="evenodd" clip-rule="evenodd" d="M18.679 16.5702L17.0559 16.7055L17.7428 24.9555L19.3659 24.8202L18.679 16.5702Z" fill="#A7DEFF"/>
</svg>
