<svg width="114" height="714" viewBox="0 0 114 714" fill="none" xmlns="http://www.w3.org/2000/svg">
<path fill-rule="evenodd" clip-rule="evenodd" d="M-13.9304 703.249L-10.1341 735.131L3.5296 745H-23.0395L-26.0763 703.249H-13.9304Z" fill="#F96B1C"/>
<path fill-rule="evenodd" clip-rule="evenodd" d="M81.3868 85.7579L59.6421 117.931L86.4788 131.329L110.316 99.9204L81.3868 85.7579Z" fill="#DBF5FF"/>
<path fill-rule="evenodd" clip-rule="evenodd" d="M56.3696 122.773C55.2093 124.489 55.79 126.832 57.6164 127.809L74.6688 136.934C75.4203 137.336 76.2936 137.45 77.1225 137.253L81.8263 136.139C82.6165 135.953 83.3145 135.497 83.8041 134.852L86.4788 131.328L59.6432 117.93L56.3696 122.773Z" fill="#131412"/>
<path fill-rule="evenodd" clip-rule="evenodd" d="M75.6696 153.479L94.3502 123.773V121.218L81.8979 135.911L76.4905 124.817C76.0533 123.921 74.9124 123.595 74.0493 124.121C73.4469 124.488 73.1406 125.18 73.2818 125.859L75.6696 137.348L67.1502 133.356L62.6252 146.451L75.6696 153.479Z" fill="#FD9F9D"/>
<path fill-rule="evenodd" clip-rule="evenodd" d="M-51.6935 142.852C-51.6935 142.852 -14.4974 110.249 29.1503 105.296L33.3257 121.218C33.3257 121.218 -6.52688 137.538 -33.096 176.632L-51.6935 142.852Z" fill="#1A72F1"/>
<path fill-rule="evenodd" clip-rule="evenodd" d="M112.534 96.9952C113.929 95.1574 113.191 92.4964 111.048 91.639L87.1779 82.0994C85.6521 81.4902 83.9077 82.0254 82.9888 83.3872L81.3867 85.7579L110.314 99.9203L112.534 96.9952Z" fill="#131412"/>
<path fill-rule="evenodd" clip-rule="evenodd" d="M60.7271 145.129L3.71974 224.834C3.71974 224.834 -59.7585 69.219 -120.202 78.4238C-120.202 78.4238 -199.718 80.6055 -195.164 208.893C-190.609 337.181 -179.981 380.449 -179.981 380.449L-27.4028 362.989L-38.0309 271.139C-38.0309 271.139 -5.38942 296.948 22.6975 255.198C50.7833 213.448 75.8335 153.479 75.8335 153.479L60.7271 145.129Z" fill="#0657CD"/>
<path fill-rule="evenodd" clip-rule="evenodd" d="M-27.4029 362.989C-27.4029 362.989 -2.54399 562.817 -1.02617 579.517C0.492783 596.217 -6.33908 710.841 -6.33908 710.841H-33.6665C-33.6665 710.841 -45.053 591.662 -48.8492 578.758C-52.6443 565.854 -89.6491 416.885 -89.6491 416.885L-97.9988 414.607C-97.9988 414.607 -101.985 578.758 -104.262 590.904C-106.54 603.048 -127.795 721.467 -127.795 721.467H-149.05C-149.05 721.467 -148.014 596.959 -149.05 582.553C-158.159 455.783 -174.667 413.494 -179.981 380.448L-27.4029 362.989Z" fill="#19243C"/>
<path fill-rule="evenodd" clip-rule="evenodd" d="M3.72083 224.834L8.2754 233.184V218.466L3.72083 224.834Z" fill="#1A72F1"/>
<path fill-rule="evenodd" clip-rule="evenodd" d="M29.1503 105.295H44.7121C44.7121 105.295 66.8075 112.326 65.5869 114.683C64.3663 117.042 45.8508 112.107 45.8508 112.107V118.181L33.3257 121.216L29.1503 105.295Z" fill="#FD9F9D"/>
<path fill-rule="evenodd" clip-rule="evenodd" d="M95.5332 111.574C97.2081 105.746 93.84 99.663 88.0102 97.987C82.1814 96.3132 76.0977 99.6801 74.4227 105.51C72.7478 111.34 76.117 117.424 81.9446 119.099C87.7745 120.774 93.8582 117.405 95.5332 111.574Z" fill="#FFFFFE"/>
<path fill-rule="evenodd" clip-rule="evenodd" d="M78.6391 116.007L77.2261 107.066C77.0792 106.134 77.7145 105.259 78.6471 105.113C79.5705 104.965 80.4541 105.601 80.601 106.534L81.3161 111.061L93.0509 105.791C93.9095 105.404 94.9206 105.79 95.3077 106.649C95.6937 107.511 95.31 108.522 94.4492 108.909L78.6391 116.007Z" fill="#00CD74"/>
<path fill-rule="evenodd" clip-rule="evenodd" d="M23.9614 78.6232L48.2999 86.5755L47.5928 88.74L23.2532 80.7877L23.9614 78.6232Z" fill="#A7DEFF"/>
<path fill-rule="evenodd" clip-rule="evenodd" d="M34.0908 50.1514L58.4691 72.2707L56.9388 73.957L32.5604 51.8388L34.0908 50.1514Z" fill="#A7DEFF"/>
<path fill-rule="evenodd" clip-rule="evenodd" d="M64.1201 46.0568L70.3212 62.7242L68.1874 63.5179L61.9863 46.8515L64.1201 46.0568Z" fill="#A7DEFF"/>
</svg>
