<svg width="40" height="40" viewBox="0 0 40 40" fill="none" xmlns="http://www.w3.org/2000/svg">
<path d="M39.5 20C39.5 30.7696 30.7696 39.5 20 39.5C9.23045 39.5 0.5 30.7696 0.5 20C0.5 9.23045 9.23045 0.5 20 0.5C30.7696 0.5 39.5 9.23045 39.5 20Z" fill="#F4F9FF" stroke="#029656"/>
<path d="M28.5541 12.0231C28.3168 11.8257 28.0305 11.6964 27.7255 11.6488C27.4206 11.6012 27.1084 11.6372 26.8223 11.7529L11.8882 17.7824C11.5688 17.9138 11.297 18.1392 11.1087 18.4288C10.9204 18.7183 10.8247 19.0582 10.8341 19.4034C10.8436 19.7486 10.9578 20.0828 11.1616 20.3616C11.3654 20.6404 11.6492 20.8506 11.9753 20.9644L14.9961 22.015L16.6799 27.583C16.7028 27.6574 16.736 27.7282 16.7785 27.7933C16.785 27.8033 16.7941 27.8108 16.801 27.8205C16.8501 27.8891 16.9096 27.9498 16.9772 28.0003C16.9964 28.015 17.0148 28.0287 17.0353 28.0417C17.1144 28.0942 17.2021 28.1326 17.2943 28.1551L17.3041 28.156L17.3097 28.1584C17.3652 28.1696 17.4216 28.1754 17.4782 28.1754C17.4836 28.1754 17.4885 28.1728 17.4939 28.1727C17.5792 28.1713 17.6639 28.1566 17.7448 28.1292C17.7636 28.1227 17.7797 28.112 17.798 28.1043C17.8583 28.0793 17.9154 28.0472 17.9682 28.0088C18.0105 27.9732 18.0528 27.9376 18.0951 27.902L20.3469 25.4158L23.7054 28.0176C24.0011 28.2478 24.365 28.3729 24.7398 28.3732C25.1324 28.3727 25.513 28.2372 25.8176 27.9895C26.1222 27.7418 26.3324 27.3968 26.413 27.0125L29.1319 13.6654C29.1935 13.365 29.1723 13.0535 29.0705 12.7642C28.9687 12.4749 28.7902 12.2188 28.5541 12.0231V12.0231ZM17.8086 22.2803C17.6931 22.3954 17.6141 22.542 17.5816 22.7018L17.3237 23.9552L16.6703 21.7943L20.058 20.0302L17.8086 22.2803ZM24.7268 26.7L20.7578 23.6255C20.5918 23.4972 20.3835 23.4361 20.1745 23.4545C19.9654 23.4729 19.771 23.5694 19.6299 23.7248L18.9087 24.5208L19.1636 23.282L25.0661 17.3795C25.207 17.2388 25.2928 17.0523 25.3081 16.8538C25.3233 16.6553 25.2669 16.4579 25.1492 16.2973C25.0314 16.1368 24.8601 16.0237 24.6661 15.9786C24.4722 15.9335 24.2685 15.9593 24.092 16.0514L15.6209 20.4619L12.5173 19.3262L27.4994 13.3325L24.7268 26.7Z" fill="#029656"/>
</svg>
