<svg width="192" height="162" viewBox="0 0 192 162" fill="none" xmlns="http://www.w3.org/2000/svg">
<path fill-rule="evenodd" clip-rule="evenodd" d="M0.112671 149.965L25.437 161.757C25.437 161.757 25.437 130.16 48.5257 118.773L24.3197 107.386C24.3197 107.386 0.857864 121.039 0.112671 149.965Z" fill="#00CD74"/>
<path fill-rule="evenodd" clip-rule="evenodd" d="M108.78 77.5214C108.78 77.5214 99.0971 97.6315 70.7943 107.315L92.2351 114.649L107.283 114.175C117.397 109.918 134.013 100.16 140.063 80.501L108.78 77.5214Z" fill="#00CD74"/>
<path fill-rule="evenodd" clip-rule="evenodd" d="M165.422 42.114C166.177 22.5938 185.265 21.0576 191.643 0H164.005C157.627 12.5722 139.781 18.0489 136.365 35.2006L165.422 42.114Z" fill="#00CD74"/>
<path fill-rule="evenodd" clip-rule="evenodd" d="M27.5976 129.819C27.5976 125.089 23.8459 121.253 19.2183 121.253C14.5908 121.253 10.8391 125.089 10.8391 129.819C10.8391 134.549 14.5908 138.384 19.2183 138.384C23.8459 138.384 27.5976 134.549 27.5976 129.819Z" fill="#009B56"/>
<path fill-rule="evenodd" clip-rule="evenodd" d="M117.346 97.9779C117.346 94.8932 112.845 92.3917 107.291 92.3917C101.737 92.3917 97.236 94.8932 97.236 97.9779C97.236 101.063 101.737 103.563 107.291 103.563C112.845 103.563 117.346 101.063 117.346 97.9779Z" fill="#009B56"/>
<path fill-rule="evenodd" clip-rule="evenodd" d="M173.874 18.1785C173.874 15.3552 169.455 13.066 164.005 13.066C158.555 13.066 154.135 15.3552 154.135 18.1785C154.135 21.0029 158.555 23.2921 164.005 23.2921C169.455 23.2921 173.874 21.0029 173.874 18.1785Z" fill="#009B56"/>
<path fill-rule="evenodd" clip-rule="evenodd" d="M92.2362 114.65L100.219 110.454L107.291 114.174L92.2362 114.65Z" fill="#009B56"/>
</svg>
