<svg width="24" height="24" viewBox="0 0 24 24" fill="none" xmlns="http://www.w3.org/2000/svg">
<path d="M12.11 15.3898L8.23 19.2698C8.00051 19.5002 7.72779 19.683 7.42748 19.8078C7.12717 19.9325 6.80519 19.9967 6.48 19.9967C6.15481 19.9967 5.83283 19.9325 5.53252 19.8078C5.23221 19.683 4.95949 19.5002 4.73 19.2698C4.4984 19.041 4.31452 18.7685 4.18902 18.4681C4.06352 18.1677 3.9989 17.8454 3.9989 17.5198C3.9989 17.1943 4.06352 16.8719 4.18902 16.5715C4.31452 16.2711 4.4984 15.9986 4.73 15.7698L8.61 11.8898C8.7983 11.7015 8.90409 11.4461 8.90409 11.1798C8.90409 10.9135 8.7983 10.6581 8.61 10.4698C8.4217 10.2815 8.1663 10.1757 7.9 10.1757C7.6337 10.1757 7.3783 10.2815 7.19 10.4698L3.31 14.3598C2.52836 15.2106 2.10562 16.3305 2.13008 17.4856C2.15453 18.6407 2.62428 19.7417 3.44123 20.5586C4.25818 21.3756 5.35916 21.8453 6.51425 21.8698C7.66933 21.8942 8.78921 21.4715 9.64 20.6898L13.53 16.8098C13.7183 16.6215 13.8241 16.3661 13.8241 16.0998C13.8241 15.8335 13.7183 15.5781 13.53 15.3898C13.3417 15.2015 13.0863 15.0957 12.82 15.0957C12.5537 15.0957 12.2983 15.2015 12.11 15.3898ZM8.83 15.1698C8.92344 15.2625 9.03426 15.3358 9.15609 15.3856C9.27793 15.4354 9.40839 15.4606 9.54 15.4598C9.67161 15.4606 9.80207 15.4354 9.92391 15.3856C10.0457 15.3358 10.1566 15.2625 10.25 15.1698L15.17 10.2498C15.3583 10.0615 15.4641 9.80614 15.4641 9.53984C15.4641 9.27353 15.3583 9.01814 15.17 8.82984C14.9817 8.64153 14.7263 8.53575 14.46 8.53575C14.1937 8.53575 13.9383 8.64153 13.75 8.82984L8.83 13.7498C8.73627 13.8428 8.66188 13.9534 8.61111 14.0753C8.56034 14.1971 8.5342 14.3278 8.5342 14.4598C8.5342 14.5918 8.56034 14.7226 8.61111 14.8444C8.66188 14.9663 8.73627 15.0769 8.83 15.1698ZM21 17.9998H20V16.9998C20 16.7346 19.8946 16.4803 19.7071 16.2927C19.5196 16.1052 19.2652 15.9998 19 15.9998C18.7348 15.9998 18.4804 16.1052 18.2929 16.2927C18.1054 16.4803 18 16.7346 18 16.9998V17.9998H17C16.7348 17.9998 16.4804 18.1052 16.2929 18.2927C16.1054 18.4803 16 18.7346 16 18.9998C16 19.2651 16.1054 19.5194 16.2929 19.7069C16.4804 19.8945 16.7348 19.9998 17 19.9998H18V20.9998C18 21.2651 18.1054 21.5194 18.2929 21.7069C18.4804 21.8945 18.7348 21.9998 19 21.9998C19.2652 21.9998 19.5196 21.8945 19.7071 21.7069C19.8946 21.5194 20 21.2651 20 20.9998V19.9998H21C21.2652 19.9998 21.5196 19.8945 21.7071 19.7069C21.8946 19.5194 22 19.2651 22 18.9998C22 18.7346 21.8946 18.4803 21.7071 18.2927C21.5196 18.1052 21.2652 17.9998 21 17.9998ZM16.81 13.5298L20.69 9.63984C21.4716 8.78904 21.8944 7.66917 21.8699 6.51408C21.8455 5.359 21.3757 4.25802 20.5588 3.44107C19.7418 2.62412 18.6408 2.15436 17.4858 2.12991C16.3307 2.10546 15.2108 2.52819 14.36 3.30984L10.47 7.18984C10.3768 7.28307 10.3028 7.39377 10.2523 7.51559C10.2019 7.63741 10.1759 7.76798 10.1759 7.89984C10.1759 8.0317 10.2019 8.16226 10.2523 8.28409C10.3028 8.40591 10.3768 8.5166 10.47 8.60984C10.5632 8.70307 10.6739 8.77704 10.7958 8.8275C10.9176 8.87796 11.0481 8.90393 11.18 8.90393C11.3119 8.90393 11.4424 8.87796 11.5642 8.8275C11.6861 8.77704 11.7968 8.70307 11.89 8.60984L15.77 4.72984C15.9995 4.49944 16.2722 4.31663 16.5725 4.19189C16.8728 4.06715 17.1948 4.00294 17.52 4.00294C17.8452 4.00294 18.1672 4.06715 18.4675 4.19189C18.7678 4.31663 19.0405 4.49944 19.27 4.72984C19.5016 4.95864 19.6855 5.23115 19.811 5.53155C19.9365 5.83195 20.0011 6.15427 20.0011 6.47984C20.0011 6.8054 19.9365 7.12772 19.811 7.42812C19.6855 7.72853 19.5016 8.00103 19.27 8.22984L15.39 12.1098C15.2963 12.2028 15.2219 12.3134 15.1711 12.4353C15.1203 12.5571 15.0942 12.6878 15.0942 12.8198C15.0942 12.9518 15.1203 13.0826 15.1711 13.2044C15.2219 13.3263 15.2963 13.4369 15.39 13.5298C15.483 13.6236 15.5936 13.698 15.7154 13.7487C15.8373 13.7995 15.968 13.8256 16.1 13.8256C16.232 13.8256 16.3627 13.7995 16.4846 13.7487C16.6064 13.698 16.717 13.6236 16.81 13.5298Z" fill="#029656"/>
</svg>
