<svg width="24" height="24" viewBox="0 0 24 24" fill="none" xmlns="http://www.w3.org/2000/svg">
<path d="M11.9906 15.4523C11.8682 15.4523 11.7508 15.4037 11.6642 15.3171C11.5776 15.2306 11.529 15.1132 11.529 14.9908V11.2985C11.529 11.176 11.5776 11.0587 11.6642 10.9721C11.7508 10.8855 11.8682 10.8369 11.9906 10.8369C12.113 10.8369 12.2304 10.8855 12.3169 10.9721C12.4035 11.0587 12.4521 11.176 12.4521 11.2985V14.9908C12.4521 15.1132 12.4035 15.2306 12.3169 15.3171C12.2304 15.4037 12.113 15.4523 11.9906 15.4523Z" fill="#8282AA"/>
<path d="M20.4644 8.1138L17.3813 4.21841C17.251 4.05452 17.0853 3.92211 16.8968 3.83102C16.7082 3.73993 16.5015 3.6925 16.2921 3.69226H7.72594C7.51652 3.6925 7.30984 3.73993 7.12127 3.83102C6.9327 3.92211 6.76708 4.05452 6.63671 4.21841L3.51671 8.1138C3.33033 8.35591 3.22926 8.65287 3.22926 8.95842C3.22926 9.26396 3.33033 9.56092 3.51671 9.80303L10.9013 19.7538C11.0303 19.9258 11.1975 20.0653 11.3898 20.1615C11.5821 20.2576 11.7941 20.3076 12.009 20.3076C12.224 20.3076 12.436 20.2576 12.6282 20.1615C12.8205 20.0653 12.9877 19.9258 13.1167 19.7538L20.5013 9.80303C20.6825 9.55687 20.7771 9.25769 20.7704 8.95213C20.7637 8.64657 20.6561 8.35181 20.4644 8.1138ZM16.7352 4.94765L19.6152 8.58457H13.1536L16.7352 4.94765ZM15.7198 4.66149L12.0275 8.43688L8.33517 4.66149H15.7198ZM7.24594 4.94765L10.8367 8.58457H4.37517L7.24594 4.94765ZM12.3413 19.2C12.2973 19.2557 12.2411 19.3007 12.1772 19.3316C12.1133 19.3626 12.0431 19.3787 11.9721 19.3787C11.9011 19.3787 11.8309 19.3626 11.767 19.3316C11.703 19.3007 11.6469 19.2557 11.6029 19.2L4.39363 9.46149H19.5875L12.3413 19.2Z" fill="#8282AA"/>
</svg>
