<svg width="24" height="24" viewBox="0 0 24 24" fill="none" xmlns="http://www.w3.org/2000/svg">
<path d="M11.9906 15.4523C11.8682 15.4523 11.7508 15.4037 11.6642 15.3171C11.5776 15.2306 11.529 15.1132 11.529 14.9908V11.2985C11.529 11.176 11.5776 11.0587 11.6642 10.9721C11.7508 10.8855 11.8682 10.8369 11.9906 10.8369C12.113 10.8369 12.2304 10.8855 12.3169 10.9721C12.4035 11.0587 12.4521 11.176 12.4521 11.2985V14.9908C12.4521 15.1132 12.4035 15.2306 12.3169 15.3171C12.2304 15.4037 12.113 15.4523 11.9906 15.4523Z" fill="#F96B1C"/>
<path d="M20.4644 8.11392L17.3813 4.21854C17.251 4.05464 17.0853 3.92223 16.8968 3.83114C16.7082 3.74005 16.5015 3.69262 16.2921 3.69238H7.72594C7.51652 3.69262 7.30984 3.74005 7.12127 3.83114C6.9327 3.92223 6.76708 4.05464 6.63671 4.21854L3.51671 8.11392C3.33033 8.35603 3.22926 8.653 3.22926 8.95854C3.22926 9.26408 3.33033 9.56104 3.51671 9.80315L10.9013 19.7539C11.0303 19.9259 11.1975 20.0655 11.3898 20.1616C11.5821 20.2577 11.7941 20.3078 12.009 20.3078C12.224 20.3078 12.436 20.2577 12.6282 20.1616C12.8205 20.0655 12.9877 19.9259 13.1167 19.7539L20.5013 9.80315C20.6825 9.55699 20.7771 9.25781 20.7704 8.95225C20.7637 8.6467 20.6561 8.35194 20.4644 8.11392ZM16.7352 4.94777L19.6152 8.58469H13.1536L16.7352 4.94777ZM15.7198 4.66161L12.0275 8.437L8.33517 4.66161H15.7198ZM7.24594 4.94777L10.8367 8.58469H4.37517L7.24594 4.94777ZM12.3413 19.2001C12.2973 19.2558 12.2411 19.3008 12.1772 19.3318C12.1133 19.3627 12.0431 19.3788 11.9721 19.3788C11.9011 19.3788 11.8309 19.3627 11.767 19.3318C11.703 19.3008 11.6469 19.2558 11.6029 19.2001L4.39363 9.46161H19.5875L12.3413 19.2001Z" fill="#029656"/>
</svg>
