<svg width="121" height="265" viewBox="0 0 121 265" fill="none" xmlns="http://www.w3.org/2000/svg">
<path fill-rule="evenodd" clip-rule="evenodd" d="M120.36 294.715C119.067 294.106 117.771 293.501 116.44 292.992C120.808 289.47 121.823 282.461 118.634 277.843C115.445 273.226 108.531 271.693 103.69 274.531C108.514 267.328 113.436 259.9 115.272 251.428C117.108 242.955 115.167 233.077 108.287 227.802C102.005 222.985 93.032 223.069 85.643 225.911C79.108 228.425 73.214 233.083 70.209 239.407C67.203 245.731 67.482 253.763 71.76 259.306C66.458 260.299 61.663 263.439 58.397 267.721C58.639 265.861 58.488 263.965 57.856 262.188C56.225 257.595 51.176 254.29 46.391 255.211C44.006 255.67 41.935 257.27 40.663 259.326C39.987 252.166 34.647 245.291 27.542 243.419C18.131 240.94 7.53998 246.906 3.98598 255.966C0.430977 265.026 3.66698 276.047 10.99 282.457C6.57798 279.347 0.310977 279.134 -4.30102 281.938C-8.61702 284.561 -11.256 289.685 -10.98 294.715H120.36Z" fill="#A7DEFF"/>
<path fill-rule="evenodd" clip-rule="evenodd" d="M37.3771 228.942C37.3771 226.029 35.0161 223.668 32.1031 223.668C29.1911 223.668 26.8301 226.029 26.8301 228.942C26.8301 231.855 29.1911 234.216 32.1031 234.216C35.0161 234.216 37.3771 231.855 37.3771 228.942Z" fill="#A7DEFF"/>
<path fill-rule="evenodd" clip-rule="evenodd" d="M59.5361 124.682L36.2671 275.215H47.9021L59.5361 124.682Z" fill="#A7DEFF"/>
<path fill-rule="evenodd" clip-rule="evenodd" d="M55.028 275.215C52.784 272.292 65.526 144.188 65.526 144.188L76.739 268.612L55.028 275.215Z" fill="#A7DEFF"/>
<path fill-rule="evenodd" clip-rule="evenodd" d="M79.3941 240.839L74.1641 140.882L88.9171 232.423L79.3941 240.839Z" fill="#A7DEFF"/>
<path fill-rule="evenodd" clip-rule="evenodd" d="M66.1979 110.598C100.111 110.598 66.1979 173.193 66.1979 173.193C66.1979 173.193 32.2849 110.598 66.1979 110.598Z" fill="#F96B1C"/>
<path fill-rule="evenodd" clip-rule="evenodd" d="M66.1979 148.876C66.1979 148.876 48.6809 116.543 66.1979 116.543C83.7149 116.543 66.1979 148.876 66.1979 148.876Z" fill="#FFF03D"/>
<path fill-rule="evenodd" clip-rule="evenodd" d="M40.1779 104.801L54.5959 91.222V59.235L44.3019 68.674C38.0609 74.397 35.3469 82.851 37.1379 90.989L40.1779 104.801Z" fill="#1A72F1"/>
<path fill-rule="evenodd" clip-rule="evenodd" d="M92.7639 104.801L95.8039 90.989C97.5949 82.851 94.8809 74.397 88.6399 68.674L78.3459 59.235V91.222L92.7639 104.801Z" fill="#1A72F1"/>
<path fill-rule="evenodd" clip-rule="evenodd" d="M67.06 0.243977L66.87 0.000976562C57.937 11.003 53.061 24.744 53.061 38.916V95.985H80.181V38.297C80.181 24.503 75.562 11.107 67.06 0.243977Z" fill="#A7DEFF"/>
<path fill-rule="evenodd" clip-rule="evenodd" d="M53.457 32.051H79.851C78.675 20.495 74.27 9.457 67.059 0.244L66.869 0C59.388 9.215 54.766 20.351 53.457 32.051Z" fill="#0657CD"/>
<path fill-rule="evenodd" clip-rule="evenodd" d="M75.7349 48.442C75.7349 43.264 71.5369 39.066 66.3589 39.066C61.1809 39.066 56.9839 43.264 56.9839 48.442C56.9839 53.62 61.1809 57.818 66.3589 57.818C71.5369 57.818 75.7349 53.62 75.7349 48.442Z" fill="#1A72F1"/>
<path fill-rule="evenodd" clip-rule="evenodd" d="M73.271 48.442C73.271 44.625 70.177 41.531 66.36 41.531C62.543 41.531 59.448 44.625 59.448 48.442C59.448 52.259 62.543 55.353 66.36 55.353C70.177 55.353 73.271 52.259 73.271 48.442Z" fill="#FFFFFE"/>
<path fill-rule="evenodd" clip-rule="evenodd" d="M75.7349 75.107C75.7349 69.929 71.5369 65.731 66.3589 65.731C61.1809 65.731 56.9839 69.929 56.9839 75.107C56.9839 80.285 61.1809 84.483 66.3589 84.483C71.5369 84.483 75.7349 80.285 75.7349 75.107Z" fill="#1A72F1"/>
<path fill-rule="evenodd" clip-rule="evenodd" d="M73.271 75.107C73.271 71.29 70.177 68.196 66.36 68.196C62.543 68.196 59.448 71.29 59.448 75.107C59.448 78.924 62.543 82.018 66.36 82.018C70.177 82.018 73.271 78.924 73.271 75.107Z" fill="#FFFFFE"/>
<path fill-rule="evenodd" clip-rule="evenodd" d="M53.061 95.985L48.05 114.547H84.3461L80.181 95.985H53.061Z" fill="#0657CD"/>
<path fill-rule="evenodd" clip-rule="evenodd" d="M81.495 101.841L80.181 95.986H53.061L51.481 101.841H81.495Z" fill="#1A72F1"/>
<path fill-rule="evenodd" clip-rule="evenodd" d="M54.658 25.05C54.128 27.354 53.722 29.69 53.458 32.051H79.851C79.611 29.692 79.229 27.355 78.724 25.05H54.658Z" fill="#1A72F1"/>
</svg>
