<svg width="24" height="24" viewBox="0 0 24 24" fill="none" xmlns="http://www.w3.org/2000/svg">
<path d="M18.12 7.12614H8.64C8.19913 7.12085 7.76514 7.23573 7.38461 7.45845V3.35999H4.15384C4.03144 3.35999 3.91404 3.40861 3.82749 3.49517C3.74093 3.58172 3.69231 3.69912 3.69231 3.82152C3.69231 3.94393 3.74093 4.06133 3.82749 4.14788C3.91404 4.23444 4.03144 4.28306 4.15384 4.28306H6.46154V14.5108C6.51087 15.0423 6.76662 15.5334 7.1739 15.8785C7.58118 16.2237 8.10753 16.3954 8.64 16.3569H18.12C18.654 16.398 19.1827 16.2274 19.592 15.882C20.0013 15.5366 20.2584 15.044 20.3077 14.5108V8.97229C20.2584 8.439 20.0013 7.94649 19.592 7.60108C19.1827 7.25568 18.654 7.08509 18.12 7.12614ZM19.3846 14.5108C19.3846 15.0092 18.8031 15.4338 18.12 15.4338H8.64C7.95692 15.4338 7.38461 15.0092 7.38461 14.5108V8.97229C7.38461 8.4646 7.94769 8.04922 8.64 8.04922H18.12C18.8031 8.04922 19.3846 8.47383 19.3846 8.97229V14.5108Z" fill="#8282AA"/>
<path d="M10.1538 8.94458H9.23077C8.97587 8.94458 8.76923 9.15122 8.76923 9.40612V10.3292C8.76923 10.5841 8.97587 10.7907 9.23077 10.7907H10.1538C10.4087 10.7907 10.6154 10.5841 10.6154 10.3292V9.40612C10.6154 9.15122 10.4087 8.94458 10.1538 8.94458Z" fill="#8282AA"/>
<path d="M13.8462 8.94458H12.9231C12.6682 8.94458 12.4615 9.15122 12.4615 9.40612V10.3292C12.4615 10.5841 12.6682 10.7907 12.9231 10.7907H13.8462C14.1011 10.7907 14.3077 10.5841 14.3077 10.3292V9.40612C14.3077 9.15122 14.1011 8.94458 13.8462 8.94458Z" fill="#8282AA"/>
<path d="M17.5385 8.94458H16.6154C16.3605 8.94458 16.1538 9.15122 16.1538 9.40612V10.3292C16.1538 10.5841 16.3605 10.7907 16.6154 10.7907H17.5385C17.7934 10.7907 18 10.5841 18 10.3292V9.40612C18 9.15122 17.7934 8.94458 17.5385 8.94458Z" fill="#8282AA"/>
<path d="M10.1538 12.637H9.23077C8.97587 12.637 8.76923 12.8436 8.76923 13.0985V14.0216C8.76923 14.2765 8.97587 14.4831 9.23077 14.4831H10.1538C10.4087 14.4831 10.6154 14.2765 10.6154 14.0216V13.0985C10.6154 12.8436 10.4087 12.637 10.1538 12.637Z" fill="#8282AA"/>
<path d="M13.8462 12.637H12.9231C12.6682 12.637 12.4615 12.8436 12.4615 13.0985V14.0216C12.4615 14.2765 12.6682 14.4831 12.9231 14.4831H13.8462C14.1011 14.4831 14.3077 14.2765 14.3077 14.0216V13.0985C14.3077 12.8436 14.1011 12.637 13.8462 12.637Z" fill="#8282AA"/>
<path d="M17.5385 12.637H16.6154C16.3605 12.637 16.1538 12.8436 16.1538 13.0985V14.0216C16.1538 14.2765 16.3605 14.4831 16.6154 14.4831H17.5385C17.7934 14.4831 18 14.2765 18 14.0216V13.0985C18 12.8436 17.7934 12.637 17.5385 12.637Z" fill="#8282AA"/>
<path d="M8.87076 20.6399C8.50562 20.6399 8.14869 20.5317 7.84509 20.3288C7.54149 20.1259 7.30486 19.8376 7.16513 19.5003C7.0254 19.1629 6.98884 18.7917 7.06008 18.4336C7.13131 18.0755 7.30714 17.7465 7.56533 17.4884C7.82352 17.2302 8.15247 17.0543 8.51059 16.9831C8.86871 16.9119 9.23991 16.9484 9.57725 17.0882C9.91459 17.2279 10.2029 17.4645 10.4058 17.7681C10.6086 18.0717 10.7169 18.4287 10.7169 18.7938C10.7169 19.2834 10.5224 19.753 10.1762 20.0992C9.82996 20.4454 9.36039 20.6399 8.87076 20.6399ZM8.87076 17.8707C8.68819 17.8707 8.50972 17.9248 8.35792 18.0263C8.20612 18.1277 8.08781 18.2719 8.01794 18.4405C7.94808 18.6092 7.9298 18.7948 7.96542 18.9739C8.00103 19.1529 8.08895 19.3174 8.21804 19.4465C8.34714 19.5756 8.51161 19.6635 8.69067 19.6991C8.86973 19.7347 9.05533 19.7165 9.224 19.6466C9.39267 19.5767 9.53684 19.4584 9.63827 19.3066C9.7397 19.1548 9.79383 18.9764 9.79383 18.7938C9.79383 18.549 9.69658 18.3142 9.52347 18.1411C9.35036 17.968 9.11557 17.8707 8.87076 17.8707Z" fill="#8282AA"/>
<path d="M18.0831 20.6399C17.7179 20.6399 17.361 20.5317 17.0574 20.3288C16.7538 20.1259 16.5172 19.8376 16.3775 19.5003C16.2377 19.1629 16.2012 18.7917 16.2724 18.4336C16.3436 18.0755 16.5195 17.7465 16.7776 17.4884C17.0358 17.2302 17.3648 17.0543 17.7229 16.9831C18.081 16.9119 18.4522 16.9484 18.7896 17.0882C19.1269 17.2279 19.4152 17.4645 19.6181 17.7681C19.821 18.0717 19.9292 18.4287 19.9292 18.7938C19.9292 19.2834 19.7347 19.753 19.3885 20.0992C19.0423 20.4454 18.5727 20.6399 18.0831 20.6399ZM18.0831 17.8707C17.9005 17.8707 17.722 17.9248 17.5702 18.0263C17.4184 18.1277 17.3001 18.2719 17.2303 18.4405C17.1604 18.6092 17.1421 18.7948 17.1777 18.9739C17.2134 19.1529 17.3013 19.3174 17.4304 19.4465C17.5595 19.5756 17.7239 19.6635 17.903 19.6991C18.0821 19.7347 18.2677 19.7165 18.4363 19.6466C18.605 19.5767 18.7492 19.4584 18.8506 19.3066C18.952 19.1548 19.0062 18.9764 19.0062 18.7938C19.0062 18.549 18.9089 18.3142 18.7358 18.1411C18.5627 17.968 18.3279 17.8707 18.0831 17.8707Z" fill="#8282AA"/>
</svg>
