<svg width="24" height="24" viewBox="0 0 24 24" fill="none" xmlns="http://www.w3.org/2000/svg">
<path d="M18.12 7.12626H8.64C8.19913 7.12098 7.76514 7.23586 7.38461 7.45857V3.36011H4.15384C4.03144 3.36011 3.91404 3.40873 3.82749 3.49529C3.74093 3.58184 3.69231 3.69924 3.69231 3.82165C3.69231 3.94405 3.74093 4.06145 3.82749 4.148C3.91404 4.23456 4.03144 4.28318 4.15384 4.28318H6.46154V14.5109C6.51087 15.0424 6.76662 15.5335 7.1739 15.8787C7.58118 16.2238 8.10753 16.3955 8.64 16.357H18.12C18.654 16.3981 19.1827 16.2275 19.592 15.8821C20.0013 15.5367 20.2584 15.0442 20.3077 14.5109V8.97241C20.2584 8.43912 20.0013 7.94661 19.592 7.60121C19.1827 7.2558 18.654 7.08521 18.12 7.12626ZM19.3846 14.5109C19.3846 15.0093 18.8031 15.434 18.12 15.434H8.64C7.95692 15.434 7.38461 15.0093 7.38461 14.5109V8.97241C7.38461 8.46472 7.94769 8.04934 8.64 8.04934H18.12C18.8031 8.04934 19.3846 8.47395 19.3846 8.97241V14.5109Z" fill="#029656"/>
<path d="M10.1538 8.94458H9.23077C8.97587 8.94458 8.76923 9.15122 8.76923 9.40612V10.3292C8.76923 10.5841 8.97587 10.7907 9.23077 10.7907H10.1538C10.4087 10.7907 10.6154 10.5841 10.6154 10.3292V9.40612C10.6154 9.15122 10.4087 8.94458 10.1538 8.94458Z" fill="#F96B1C"/>
<path d="M13.8462 8.94458H12.9231C12.6682 8.94458 12.4615 9.15122 12.4615 9.40612V10.3292C12.4615 10.5841 12.6682 10.7907 12.9231 10.7907H13.8462C14.1011 10.7907 14.3077 10.5841 14.3077 10.3292V9.40612C14.3077 9.15122 14.1011 8.94458 13.8462 8.94458Z" fill="#F96B1C"/>
<path d="M17.5385 8.94458H16.6154C16.3605 8.94458 16.1538 9.15122 16.1538 9.40612V10.3292C16.1538 10.5841 16.3605 10.7907 16.6154 10.7907H17.5385C17.7934 10.7907 18 10.5841 18 10.3292V9.40612C18 9.15122 17.7934 8.94458 17.5385 8.94458Z" fill="#F96B1C"/>
<path d="M10.1538 12.637H9.23077C8.97587 12.637 8.76923 12.8436 8.76923 13.0985V14.0216C8.76923 14.2765 8.97587 14.4831 9.23077 14.4831H10.1538C10.4087 14.4831 10.6154 14.2765 10.6154 14.0216V13.0985C10.6154 12.8436 10.4087 12.637 10.1538 12.637Z" fill="#F96B1C"/>
<path d="M13.8462 12.637H12.9231C12.6682 12.637 12.4615 12.8436 12.4615 13.0985V14.0216C12.4615 14.2765 12.6682 14.4831 12.9231 14.4831H13.8462C14.1011 14.4831 14.3077 14.2765 14.3077 14.0216V13.0985C14.3077 12.8436 14.1011 12.637 13.8462 12.637Z" fill="#F96B1C"/>
<path d="M17.5385 12.637H16.6154C16.3605 12.637 16.1538 12.8436 16.1538 13.0985V14.0216C16.1538 14.2765 16.3605 14.4831 16.6154 14.4831H17.5385C17.7934 14.4831 18 14.2765 18 14.0216V13.0985C18 12.8436 17.7934 12.637 17.5385 12.637Z" fill="#F96B1C"/>
<path d="M8.87076 20.6401C8.50562 20.6401 8.14869 20.5318 7.84509 20.3289C7.54149 20.1261 7.30486 19.8377 7.16513 19.5004C7.0254 19.1631 6.98884 18.7919 7.06008 18.4337C7.13131 18.0756 7.30714 17.7467 7.56533 17.4885C7.82352 17.2303 8.15247 17.0545 8.51059 16.9832C8.86871 16.912 9.23991 16.9486 9.57725 17.0883C9.91459 17.228 10.2029 17.4646 10.4058 17.7682C10.6086 18.0718 10.7169 18.4288 10.7169 18.7939C10.7169 19.2835 10.5224 19.7531 10.1762 20.0993C9.82996 20.4456 9.36039 20.6401 8.87076 20.6401ZM8.87076 17.8708C8.68819 17.8708 8.50972 17.925 8.35792 18.0264C8.20612 18.1278 8.08781 18.272 8.01794 18.4407C7.94808 18.6093 7.9298 18.7949 7.96542 18.974C8.00103 19.1531 8.08895 19.3175 8.21804 19.4466C8.34714 19.5757 8.51161 19.6636 8.69067 19.6992C8.86973 19.7349 9.05533 19.7166 9.224 19.6467C9.39267 19.5769 9.53684 19.4585 9.63827 19.3067C9.7397 19.1549 9.79383 18.9765 9.79383 18.7939C9.79383 18.5491 9.69658 18.3143 9.52347 18.1412C9.35036 17.9681 9.11557 17.8708 8.87076 17.8708Z" fill="#029656"/>
<path d="M18.0831 20.6401C17.7179 20.6401 17.361 20.5318 17.0574 20.3289C16.7538 20.1261 16.5172 19.8377 16.3775 19.5004C16.2377 19.1631 16.2012 18.7919 16.2724 18.4337C16.3436 18.0756 16.5195 17.7467 16.7776 17.4885C17.0358 17.2303 17.3648 17.0545 17.7229 16.9832C18.081 16.912 18.4522 16.9486 18.7896 17.0883C19.1269 17.228 19.4152 17.4646 19.6181 17.7682C19.821 18.0718 19.9292 18.4288 19.9292 18.7939C19.9292 19.2835 19.7347 19.7531 19.3885 20.0993C19.0423 20.4456 18.5727 20.6401 18.0831 20.6401ZM18.0831 17.8708C17.9005 17.8708 17.722 17.925 17.5702 18.0264C17.4184 18.1278 17.3001 18.272 17.2303 18.4407C17.1604 18.6093 17.1421 18.7949 17.1777 18.974C17.2134 19.1531 17.3013 19.3175 17.4304 19.4466C17.5595 19.5757 17.7239 19.6636 17.903 19.6992C18.0821 19.7349 18.2677 19.7166 18.4363 19.6467C18.605 19.5769 18.7492 19.4585 18.8506 19.3067C18.952 19.1549 19.0062 18.9765 19.0062 18.7939C19.0062 18.5491 18.9089 18.3143 18.7358 18.1412C18.5627 17.9681 18.3279 17.8708 18.0831 17.8708Z" fill="#029656"/>
</svg>
