<svg width="57" height="57" viewBox="0 0 57 57" fill="none" xmlns="http://www.w3.org/2000/svg">
<path d="M55.9828 30.2681L52.6957 25.0571L54.6426 19.2084C54.9087 18.4138 54.578 17.5363 53.8527 17.1204L48.5368 14.0345L47.5635 7.94581C47.426 7.11421 46.728 6.49532 45.9017 6.45829L39.7688 6.21803L36.0963 1.28413C35.5913 0.609832 34.6915 0.388222 33.9387 0.748478L28.4026 3.39082L22.8662 0.739011C22.1134 0.379033 21.2136 0.600643 20.7086 1.27494L17.0361 6.20884L10.9123 6.4491C10.0768 6.48613 9.37916 7.10503 9.25053 7.93662L8.27723 14.0253L2.96136 17.1112C2.23611 17.5271 1.90565 18.4047 2.1718 19.1992L4.11841 25.0477L0.840469 30.2589C0.390567 30.9702 0.510003 31.8942 1.1069 32.4856L5.53215 36.7541L5.03631 42.8982C4.972 43.739 5.4954 44.506 6.29415 44.746L12.1794 46.4554L14.5756 52.1376C14.9061 52.9135 15.7232 53.357 16.5403 53.1816L22.5449 51.9433L27.2823 55.8516C27.6036 56.1102 27.9983 56.2488 28.3931 56.2488C28.7879 56.2488 29.1827 56.1102 29.5042 55.8516L34.2416 51.9433L40.2462 53.1816C41.0633 53.357 41.8896 52.9135 42.2109 52.1376L44.6074 46.4554L50.4924 44.746C51.2911 44.5152 51.8237 43.739 51.7502 42.8982L51.2546 36.7541L55.6796 32.4856C56.3135 31.9034 56.4235 30.9797 55.9828 30.2681ZM41.1001 21.7586L28.7974 40.3018C28.3291 40.9947 27.613 41.4566 26.8967 41.4566C26.1806 41.4566 25.3819 41.0501 24.8769 40.542L15.8518 31.3121C15.2368 30.6837 15.2368 29.6584 15.8518 29.03L18.0829 26.7479C18.6979 26.1287 19.6988 26.1287 20.3138 26.7479L26.1898 32.7534L35.8758 18.1368C36.3625 17.3977 37.3541 17.2128 38.0702 17.7117L40.6869 19.5227C41.403 20.0216 41.5867 21.0286 41.1001 21.7586Z" fill="#034F2E"/>
</svg>
