<svg width="40" height="40" viewBox="0 0 40 40" fill="none" xmlns="http://www.w3.org/2000/svg">
<path d="M39.5 20C39.5 30.7696 30.7696 39.5 20 39.5C9.23045 39.5 0.5 30.7696 0.5 20C0.5 9.23045 9.23045 0.5 20 0.5C30.7696 0.5 39.5 9.23045 39.5 20Z" fill="#F4F9FF" stroke="#029656"/>
<path d="M29.1592 13.2918C29.1593 13.1446 29.1204 13 29.0464 12.8728C28.9724 12.7455 28.8661 12.6401 28.7381 12.5674C28.6102 12.4946 28.4652 12.457 28.3181 12.4585C28.1709 12.4599 28.0267 12.5004 27.9002 12.5757C27.4125 12.866 26.8873 13.0883 26.3394 13.2365C25.5569 12.565 24.5589 12.1976 23.5277 12.2014C22.3965 12.2027 21.3101 12.6435 20.4979 13.4308C19.6857 14.2182 19.2112 15.2903 19.1747 16.4209C16.9447 16.0653 14.9236 14.9014 13.4968 13.151C13.4108 13.0467 13.301 12.9646 13.1766 12.9117C13.0523 12.8587 12.917 12.8364 12.7822 12.8467C12.6475 12.8578 12.5176 12.9015 12.4036 12.9741C12.2896 13.0467 12.195 13.146 12.1279 13.2633C11.7842 13.8632 11.5868 14.5356 11.5517 15.2261C11.5167 15.9165 11.6449 16.6055 11.9261 17.2371L11.9245 17.2387C11.7981 17.3166 11.6938 17.4255 11.6216 17.5552C11.5493 17.6849 11.5116 17.8309 11.5119 17.9793C11.5104 18.1018 11.5177 18.2241 11.5339 18.3455C11.619 19.3941 12.0837 20.3756 12.8408 21.1059C12.7895 21.2038 12.7581 21.3109 12.7486 21.421C12.7391 21.5311 12.7516 21.642 12.7855 21.7472C13.1156 22.7757 13.8176 23.6439 14.7541 24.1821C13.8026 24.55 12.7753 24.6783 11.7625 24.5556C11.5751 24.5321 11.3852 24.573 11.2241 24.6716C11.0629 24.7702 10.9401 24.9206 10.8756 25.0982C10.8112 25.2757 10.809 25.4699 10.8695 25.6489C10.93 25.8279 11.0495 25.981 11.2084 26.0831C12.9501 27.2049 14.9781 27.8014 17.0498 27.8011C19.3992 27.8275 21.6915 27.0768 23.57 25.6656C25.4486 24.2545 26.8081 22.2621 27.4372 19.9983C27.7314 19.0122 27.8816 17.9887 27.8832 16.9596C27.8832 16.9051 27.8832 16.849 27.8823 16.7928C28.3174 16.3236 28.6545 15.7722 28.8737 15.1711C29.093 14.5699 29.19 13.931 29.1592 13.2918V13.2918ZM26.4037 15.9684C26.266 16.1312 26.1964 16.3408 26.2092 16.5535C26.2173 16.691 26.2165 16.8294 26.2165 16.9596C26.2148 17.8292 26.0873 18.694 25.8381 19.5272C25.3243 21.4533 24.179 23.1514 22.5856 24.3493C20.9922 25.5473 19.0429 26.1759 17.0498 26.1344C16.3339 26.1347 15.6204 26.0505 14.9242 25.8838C15.812 25.5977 16.6422 25.1565 17.3762 24.5809C17.5114 24.4744 17.6103 24.3288 17.6594 24.1639C17.7085 23.999 17.7054 23.8229 17.6505 23.6598C17.5956 23.4968 17.4915 23.3547 17.3527 23.2531C17.2138 23.1515 17.0469 23.0954 16.8748 23.0924C16.1822 23.0817 15.5208 22.8025 15.03 22.3136C15.1545 22.29 15.2782 22.2607 15.4011 22.2257C15.5811 22.1745 15.7386 22.0642 15.8483 21.9125C15.9579 21.7609 16.0134 21.5767 16.0057 21.3897C15.998 21.2027 15.9276 21.0238 15.8058 20.8816C15.684 20.7395 15.5179 20.6425 15.3343 20.6063C14.9323 20.5269 14.5539 20.3558 14.2287 20.1064C13.9036 19.857 13.6403 19.536 13.4593 19.1683C13.6099 19.1888 13.7615 19.2016 13.9134 19.2065C14.0939 19.2093 14.2706 19.1545 14.4179 19.0502C14.5652 18.9459 14.6755 18.7974 14.7329 18.6263C14.7879 18.4536 14.7851 18.2677 14.7249 18.0967C14.6646 17.9258 14.5503 17.7791 14.3993 17.679C14.0327 17.4348 13.7325 17.1035 13.5254 16.7148C13.3183 16.3261 13.2109 15.8921 13.2127 15.4517C13.2127 15.3963 13.2144 15.341 13.2176 15.2865C15.0853 17.0283 17.5079 18.0552 20.0585 18.186C20.1872 18.1911 20.3154 18.1669 20.4334 18.1151C20.5514 18.0634 20.6561 17.9855 20.7396 17.8874C20.8223 17.7883 20.8808 17.6714 20.9106 17.5458C20.9404 17.4203 20.9406 17.2896 20.9113 17.1639C20.8636 16.965 20.8393 16.7613 20.8389 16.5568C20.8396 15.8439 21.1231 15.1604 21.6272 14.6564C22.1313 14.1523 22.8148 13.8687 23.5277 13.868C23.8945 13.867 24.2575 13.9421 24.5938 14.0884C24.9301 14.2348 25.2324 14.4493 25.4816 14.7184C25.5777 14.8218 25.6987 14.8989 25.833 14.9424C25.9673 14.9858 26.1105 14.9942 26.249 14.9667C26.5913 14.9 26.9287 14.8103 27.2589 14.6981C27.0337 15.1589 26.7459 15.5864 26.4037 15.9684V15.9684Z" fill="#029656"/>
</svg>
