<svg width="40" height="40" viewBox="0 0 40 40" fill="none" xmlns="http://www.w3.org/2000/svg">
<path d="M39.5 20C39.5 30.7696 30.7696 39.5 20 39.5C9.23045 39.5 0.5 30.7696 0.5 20C0.5 9.23045 9.23045 0.5 20 0.5C30.7696 0.5 39.5 9.23045 39.5 20Z" fill="#F4F9FF" stroke="#029656"/>
<g clip-path="url(#clip0_2_11)">
<path d="M24.582 21.9843C24.3338 21.8602 23.1099 21.2601 22.8818 21.1781C22.6537 21.0951 22.4879 21.054 22.3221 21.3021C22.1564 21.5492 21.6791 22.1083 21.5334 22.2733C21.3887 22.4384 21.243 22.4584 20.9948 22.3343C20.2613 22.0437 19.5843 21.628 18.9942 21.1061C18.4499 20.6053 17.9833 20.0268 17.6095 19.3897C17.4648 19.1416 17.5945 19.0076 17.7191 18.8846C17.8306 18.7735 17.9682 18.5955 18.0918 18.4505C18.1942 18.3253 18.2781 18.1862 18.341 18.0374C18.3741 17.969 18.3896 17.8935 18.3859 17.8177C18.3822 17.7419 18.3595 17.6682 18.3199 17.6033C18.2576 17.4793 17.7602 16.26 17.5533 15.7639C17.3513 15.2818 17.1463 15.3468 16.9926 15.3388C16.8479 15.3318 16.6821 15.3298 16.5163 15.3298C16.3902 15.3333 16.2661 15.3627 16.152 15.4163C16.0379 15.4698 15.9361 15.5463 15.8531 15.6409C15.5718 15.9061 15.349 16.2267 15.199 16.5823C15.049 16.9379 14.9751 17.3207 14.9819 17.7063C15.0626 18.6408 15.4157 19.5314 15.9978 20.2689C17.0648 21.8613 18.5296 23.1501 20.2482 24.0087C20.7118 24.2069 21.1853 24.3812 21.667 24.5308C22.1748 24.6843 22.7116 24.7175 23.2345 24.6278C23.5809 24.558 23.9089 24.4174 24.1979 24.2149C24.4869 24.0125 24.7306 23.7525 24.9136 23.4516C25.0768 23.0814 25.1271 22.6717 25.0583 22.2733C24.997 22.1693 24.8312 22.1083 24.582 21.9843V21.9843ZM27.086 12.9033C25.3778 11.2032 23.1071 10.1791 20.6967 10.0214C18.2864 9.8638 15.9006 10.5834 13.9836 12.0464C12.0666 13.5093 10.749 15.6158 10.276 17.9737C9.80308 20.3317 10.2071 22.7804 11.4128 24.8639L10 30L15.2793 28.6227C16.7395 29.4141 18.3756 29.8288 20.0382 29.829H20.0422C22.0118 29.828 23.9368 29.2459 25.5742 28.1563C27.2115 27.0667 28.4877 25.5185 29.2415 23.7072C29.9953 21.8959 30.1928 19.9029 29.8092 17.98C29.4255 16.057 28.4779 14.2904 27.086 12.9033V12.9033ZM24.4403 26.8953C23.1221 27.7178 21.5979 28.1542 20.0422 28.1546H20.0382C18.556 28.1545 17.1011 27.7576 15.826 27.0053L15.5235 26.8273L12.3905 27.6455L13.2265 24.6048L13.0305 24.2927C12.1609 22.9123 11.722 21.3061 11.7694 19.6774C11.8168 18.0487 12.3483 16.4705 13.2967 15.1424C14.2452 13.8144 15.5679 12.7961 17.0977 12.2163C18.6275 11.6366 20.2957 11.5214 21.8912 11.8853C23.4868 12.2493 24.9381 13.076 26.0617 14.261C27.1852 15.446 27.9305 16.936 28.2034 18.5426C28.4762 20.1493 28.2644 21.8003 27.5945 23.2871C26.9247 24.7739 25.827 26.0295 24.4403 26.8953" fill="#029656"/>
</g>
<defs>
<clipPath id="clip0_2_11">
<rect width="20" height="20" fill="white" transform="translate(10 10)"/>
</clipPath>
</defs>
</svg>
